<?xml version="1.0" encoding="UTF-8"?><svg xmlns="http://www.w3.org/2000/svg" xmlns:xlink="http://www.w3.org/1999/xlink" height="401.5" preserveAspectRatio="xMidYMid meet" version="1.0" viewBox="81.2 39.8 386.9 401.5" width="386.9" zoomAndPan="magnify"><g id="change1_14"><path d="M467,303.8c-1.8-4.5-6.5-6.6-10.7-8.4c-0.8-0.4-1.7-0.7-2.6-1c-1.2-0.4-2.3-0.9-3.5-1.2 c-1.2-0.3-2.4-0.7-3.7-1c-1.1-0.3-2.3-0.5-3.4-0.8c-2.1-0.5-4.2-0.9-6.4-1.3c-1.9-0.4-3.9-0.6-5.9-0.9c-2.4-0.3-4.7-0.6-7.1-0.8 c-1-0.1-2-0.2-3.1-0.3c-1.2-0.1-2.4-0.2-3.6-0.2c-1.1,0-2.2,0.1-3.3,0.3c-0.5,0.1-1.1,0.2-1.6,0.4c-0.5,0.2-1,0.5-1.5,0.7 c-0.4,0.3-0.9,0.7-1.3,1.1c-0.5,0.6-0.9,1.2-1.3,1.9c-0.1,0.4-0.3,0.7-0.4,1.1c-0.2,0.5-0.4,1.1-0.6,1.7c-0.1,0.5-0.3,0.9-0.4,1.4 c-0.4,1.5-0.6,3.1-0.8,4.6c-0.4,2.5-0.7,5-1.4,7.4c-0.8,2.3-1.8,4.4-2.9,6.6c-1.4-0.5-2.9-1-4.3-1.5c0.3-0.8,0.6-1.5,0.9-2.3 c1.8-5.1,3.1-10.6,2.4-16.1c-0.3-2.7-1.3-5.3-2.7-7.6c-0.6-1-1.2-1.9-1.8-2.9c-1.3-2-2.8-4-4.3-5.9c-2.8-3.4-5.8-6.7-8.7-10.1 c-2.9-3.3-5.8-6.7-8.6-10.1c-0.4-0.5-0.8-1-1.2-1.5c3.3-2.1,6.4-4.4,9.5-6.7c1.8-1.3,3.5-2.7,5.2-4.1c1.9-1.5,3.6-3.2,5.4-4.8 c3.1-2.8,5.7-6,8.1-9.3c1.2-1.7,2.4-3.4,3.4-5.2c1-1.9,1.7-4.1,2.3-6.1c1.2-3.9,1.9-8,2.5-12c0.3-2.4,0.6-4.7,0.8-7.1 c0.1-2.1,0.3-4.2,0.1-6.3c-0.4-5.4-0.8-10.8-2.3-16c-0.4-1.3-0.8-2.5-1.4-3.7c-0.3-0.7-0.7-1.3-1-1.9c-0.4-0.7-1-1.3-1.5-1.9 c-1-1.1-2.1-1.8-3.5-2.2c-0.4-0.1-1-0.2-1.5-0.2c-0.1,0-0.2,0-0.3,0c-0.5,0.1-1.1,0.2-1.6,0.3c-0.4,0.2-0.9,0.4-1.3,0.6 c-0.9,0.5-1.7,1.2-2.5,2c-0.1,0.1-0.1,0.1-0.2,0.1c-0.2,0.2-0.5,0.4-0.7,0.7c-0.2,0.2-0.5,0.4-0.7,0.7c-0.1,0.1-0.2,0.2-0.3,0.3 c-0.2,0.1-0.3,0.3-0.5,0.4c-0.4,0.3-0.7,0.6-1.1,0.9c0,0,0,0,0,0c-0.3,0.2-0.5,0.4-0.8,0.6c-0.2,0.1-0.3,0.3-0.5,0.4 c-0.1,0.1-0.3,0.2-0.4,0.3c-0.2,0.1-0.4,0.3-0.6,0.4c-0.9,0.6-1.7,1.2-2.5,1.8c-2.5,1.9-5.1,3.7-7.8,5.4c-3.1,2-6.3,3.8-9.5,5.7 c-0.4,0.1-0.8,0.4-1.1,0.6c-1.8,1-3.6,2-5.4,3.1c-1.9,0.9-3.7,1.9-5.6,2.8c-1.9,1-3.9,1.8-5.8,2.7c-3.9,1.8-7.9,3.6-11.9,5.3 c-3.7,1.7-7.5,3.3-11.2,4.8c-0.1,0-0.2,0.1-0.3,0.1c-1.9-1.5-3.8-3-5.8-4.5c-1.4-1-2.8-2-4.3-2.8c-1.1-0.6-2.3-1.1-3.5-1.4 c-0.8-0.2-1.6-0.3-2.3-0.4c-0.2,0-0.3,0-0.5,0c-0.7,0-1.4,0.1-2,0.2c-0.7,0.1-1.4,0.3-2.1,0.5c-0.4,0.1-0.9,0.2-1.3,0.4 c-1.1,0.4-2.2,0.8-3.3,1.2c-0.7,0.3-1.3,0.5-2,0.8c1.6-3.9,2.9-7.8,4.2-11.7c1.8-5.7,3.1-11.5,4.1-17.4c1-0.4,2-0.9,2.9-1.4 c2.4-1.2,4.8-2.5,7.2-3.8c2.1-1.1,4.1-2.5,6.1-3.8c1.9-1.2,3.8-2.5,5.8-3.6c0.5-0.3,0.9-0.8,1.2-1.4c0.3-0.2,0.5-0.5,0.7-0.8 c0.5-0.6,1-1.2,1.4-1.9c0.4-0.7,0.7-1.4,0.9-2.1c0.5-1.3,0.6-2.7,0.8-4.1c0.2-1.5,0.1-3,0-4.5c-0.1-1.9-0.3-3.8-0.6-5.7 c-0.4-3-1.1-6-1.7-9c-1.1-5.2-2.7-10.3-4.9-15.1c-1.1-2.5-2.5-4.9-4-7.2c-1.7-2.5-3.6-4.8-5.8-6.8c-1.5-1.3-3.1-2.6-5-3.1 c-0.4-0.1-0.8-0.1-1.3-0.1c-0.3,0-0.6,0-1,0.1c-2.1,0.1-4.2,0.3-6.3,0.4c-1,0.1-2,0.2-3.1,0.3c-0.4-1.1-0.9-2.2-1.4-3.3 c-2.4-5.6-5.4-11-8.8-16c-6.7-10-15.8-18.3-25.8-24.9c-5.1-3.4-10.5-6.3-16.2-8.7c-5.9-2.5-12-4.4-18.3-5.8 c-6.3-1.4-12.7-2-19.1-2.3c-1.7-0.1-3.3-0.1-5-0.1c-4.6,0-9.3,0.3-13.9,0.8c-6.5,0.7-12.9,2.1-19.3,3.7c-6.1,1.6-12.2,3.6-18.1,5.9 c-5.8,2.3-11.4,5.1-16.6,8.4c-5.2,3.2-9.8,7.1-14.1,11.4c-8.6,8.6-15.5,18.9-20.1,30.2c-4.8,11.6-7.1,24.2-7.9,36.7 c-0.1,2.1-0.2,4.3-0.3,6.4c-2.1,1.4-4.1,2.8-6.1,4.3c-1.7,1.3-3.4,2.6-5,4c-0.6,0.5-1.2,0.9-1.7,1.4c-0.6,0.6-1.1,1.1-1.5,1.9 c-0.8,1.3-0.6,3.1-0.5,4.6c0.3,4.3,0.7,8.7,1.3,13c0.6,3.9,1.2,7.8,1.8,11.7c0.4,2.1,0.7,4.1,1.2,6.2c0.2,1,0.4,2,0.7,2.9 c0.1,0.2,0.1,0.4,0.2,0.6c0.2,0.6,0.5,1.1,0.7,1.7c0.2,0.4,0.8,1,1.2,1.3c0.6,0.5,1.2,0.8,1.9,1.1c1.6,0.7,3.3,1.3,5,1.7 c1,0.3,1.9,0.6,2.9,0.8c1.4,0.3,2.9,0.6,4.3,0.8c1.1,4.3,2.2,8.6,3.5,12.8c0.9,2.9,1.9,5.8,3,8.7c1.1,3,2.3,5.9,3.8,8.7 c2.8,5.5,6.6,10.3,11,14.8c2,2,4.2,3.9,6.4,5.7c2.6,2,5.3,3.9,8.1,5.7c4.5,2.8,9.2,5.4,14,7.6c1.6,0.7,3.1,1.4,4.7,2.2 c0.5,0.2,1.1,0.4,1.7,0.7c0.7,0.3,1.4,0.6,2.1,0.8c1.8,0.6,3.5,1.2,5.3,1.6c1.1,0.3,2.2,0.6,3.4,0.8c0.3,0.1,0.6,0.3,0.8,0.3 c1.1,0.1,2.3,0.3,3.4,0.5c-0.9,0.8-1.8,1.6-2.6,2.4c-0.9,0.9-1.8,1.8-2.8,2.7c-0.7,0.7-1.4,1.6-2.1,2.3c-2.7,3.1-5.2,6.5-7.6,9.9 c-2.6,3.8-5.3,7.5-8.1,11.1c-1.4,1.8-2.8,3.5-4.3,5.3c-0.5,0.6-1.1,1.3-1.7,1.9c-0.7,0.8-1.4,1.6-2.1,2.3c-1.2,1.2-2.4,2.4-3.5,3.6 c-1.1,1.1-2.3,2.2-3.5,3.3c-3.2,2.8-6.6,5.2-10.4,7.2c-1.8,0.9-3.6,1.6-5.5,2.1c-0.6,0.2-1.3,0.3-2,0.5c-0.9,0.2-1.9,0.3-2.8,0.4 c-0.9,0.1-1.9,0.1-2.9,0.1c-0.7-0.1-1.3-0.2-2-0.3c-1.3-0.2-2.5-0.3-3.8-0.4c-0.2,0-0.4,0.1-0.6,0.1c-0.7,0.1-1.4,0.3-2,0.7 c-0.2,0.1-0.4,0.2-0.6,0.3c-0.4,0.3-0.7,0.6-1,0.9c-0.9,0.9-1.4,2.3-1.7,3.5c-0.2,0.6-0.2,1.6-0.2,2.2c0,0.6,0.1,1.1,0.2,1.7 c0.1,0.8,0.3,1.5,0.6,2.2c0.3,1,0.9,1.9,1.4,2.8c0.7,1.2,1.7,2.2,2.6,3.2c0.5,0.6,1.1,1.2,1.8,1.7c0.9,0.8,1.8,1.6,2.7,2.3 c1.6,1.3,3.4,2.5,5,3.7c1.7,1.2,3.3,2.4,5,3.7c2.4,1.7,4.9,3.5,7.9,3.9c2.4,0.3,4.9,0.4,7.4,0.4c2.2,0,4.4-0.2,6.6-0.3 c2.3-0.1,4.6-0.5,6.9-0.7c2-0.2,4-0.6,5.9-0.9c1.2-0.2,2.4-0.4,3.6-0.6c1.1-0.2,2.2-0.4,3.3-0.7c1.3-0.3,2.5-0.5,3.8-0.8 c1-0.2,2.1-0.5,3.1-0.8c4-1.1,7.9-2.4,11.7-4.1c2.1-0.9,4.3-1.9,6.4-2.9c2-0.9,3.9-2,5.8-3c3.6-1.9,7.2-3.9,10.8-5.8 c0.2-0.1,0.3-0.2,0.5-0.4c0.2,0.4,0.4,0.8,0.6,1.2c5.8,11.1,12.7,21.7,20.8,31.3c4.1,4.8,8.6,9.3,13.5,13.3 c4.9,4,10.3,7.5,15.8,10.6c5.5,3,11.2,5.7,17.1,7.8c2.9,1,5.9,1.9,8.9,2.6c3.2,0.8,6.5,1.2,9.8,1.3c3.3,0.2,6.6,0.1,9.9-0.2 c1,2.1,2.2,4.2,3.5,6.1c1.3,1.8,2.8,3.6,4.3,5.3c1.6,1.8,3.2,3.6,4.8,5.5c1.8,2.1,3.8,4.1,5.9,5.9c2.4,2,4.8,3.9,7.5,5.5 c2.6,1.5,5.5,2.7,8.4,3.7c3.1,1.1,6.4,1.7,9.7,2.1c3.1,0.4,6.2,0.2,9.3-0.2c3.3-0.4,6.5-1.4,9.7-2.6c2.8-1.1,5.4-2.5,8-4.1 c2.8-1.7,5.4-3.7,7.9-5.8c4.1-3.5,7.6-7.6,10.5-12.2c1.2-2,2.4-4,3.6-6c0.9-1.6,1.7-3.2,2.4-4.8c0.3,0,0.7,0,1-0.1 c2.9-0.2,5.7-0.8,8.5-1.6c3.1-0.9,6.2-2.1,9-3.7c5.4-3,10.1-7.1,14.3-11.6c4.2-4.5,7.5-9.6,10.4-15c2.9-5.4,4.9-11.4,6.5-17.3 c2-7.4,3.3-15.1,4.4-22.7c0.4-2.9,0.9-5.9,1.4-8.8c0.3-1.8,0.5-3.6,0.8-5.4c2.6-0.4,5.2-1.2,7.6-2c2.7-0.9,5.5-2.4,7-4.9 C468,309.6,468.1,306.5,467,303.8z M458,305.1c0.2,0.2,0.4,0.3,0.6,0.5C458.4,305.4,458.2,305.2,458,305.1 c-2.7-1.6-5.7-2.7-8.6-3.8l-0.2-0.1l0.2,0.1C452.3,302.3,455.3,303.4,458,305.1z M440.2,341.2C440.2,341.2,440.2,341.2,440.2,341.2 C440.2,341.2,440.2,341.2,440.2,341.2c-0.5,2.8-1,5.3-1.5,7.6C439.3,346.4,439.8,343.9,440.2,341.2c-0.1-0.2-0.1-0.3-0.1-0.5 C440.1,340.8,440.2,341,440.2,341.2C440.2,341.1,440.2,341.1,440.2,341.2C440.2,341.1,440.2,341.1,440.2,341.2z M386.5,405.2 C386.5,405.2,386.5,405.2,386.5,405.2c-0.2,0-0.3,0-0.4-0.1C386.2,405.2,386.4,405.2,386.5,405.2 C386.5,405.2,386.5,405.2,386.5,405.2C386.5,405.2,386.5,405.2,386.5,405.2z M383.9,404.9c0.3,0,0.6,0.1,0.9,0.1 C384.5,405,384.2,404.9,383.9,404.9z M229.9,356c-0.4,0.1-0.8,0.1-1.2,0.2C229.1,356.1,229.5,356.1,229.9,356 c2-0.3,4.1-0.8,6.5-1.5C234,355.2,231.9,355.7,229.9,356z M226.4,360.3L226.4,360.3L226.4,360.3c-0.5-0.6-0.9-1.1-1.3-1.6 C225.6,359.2,226,359.8,226.4,360.3L226.4,360.3L226.4,360.3C226.4,360.3,226.4,360.3,226.4,360.3z M223.9,356.9 C223.9,356.9,223.9,356.9,223.9,356.9c0.5-0.1,0.9-0.1,1.4-0.2C224.8,356.8,224.4,356.8,223.9,356.9z M200.4,332 C200.4,332,200.4,332,200.4,332C200.4,332,200.4,332,200.4,332L200.4,332z M167.5,347.1c-0.5,0.1-1,0.3-1.5,0.4 C166.5,347.4,167,347.3,167.5,347.1z M105.4,158.6c0.1-1.7,0.2-3.5,0.4-5.1c-0.2,1.8-0.3,3.6-0.4,5.4 C105.4,158.8,105.4,158.7,105.4,158.6z M273.2,174c0,0,0,0.1,0,0.1l0,0.3l0,0.1v0.1v0.7v0.1l0,0.2v0.5l0,0.2c0,1.2-0.1,2.3-0.1,3.5 c0,0.1,0,0.1,0,0.2c0,0,0,0,0,0c0-0.1,0-0.1,0-0.2c0-1.2,0.1-2.3,0.1-3.5l0-0.2v-0.5l0-0.2v-0.1v-0.7v-0.1l0-0.1l0-0.3 C273.2,174.1,273.2,174,273.2,174c0-0.1,0-0.3,0-0.4v-0.1c0,0,0-0.1,0-0.1c-0.1-4.9-0.5-9.8-1.3-15.1c0-0.3-0.1-0.6-0.1-1l0-0.2 l-0.1-0.3l-0.1-0.3l-0.1-0.5l-0.1-0.6l0-0.3l0,0.3l0.1,0.6l0.1,0.5l0.1,0.3l0.1,0.3l0,0.2c0.1,0.3,0.1,0.6,0.1,1 c0.7,5.3,1.2,10.2,1.3,15.1c0,0,0,0.1,0,0.1v0.1C273.2,173.7,273.2,173.9,273.2,174z M300.5,174.6c-0.4,2.2-0.9,4.5-1.4,6.7 C299.6,179.1,300.1,176.8,300.5,174.6c-2-1.8-3.5-3.4-4.7-5.1l-1.7-2.2c-0.5-0.6-1-1.3-1.5-2.1c0.5,0.7,1,1.4,1.5,2.1l1.7,2.2 C297,171.2,298.5,172.8,300.5,174.6C300.5,174.6,300.5,174.6,300.5,174.6C300.5,174.6,300.5,174.6,300.5,174.6z M374.6,246.2 l0.1,0.2L374.6,246.2c-1.3-1.4-2.5-2.9-3.7-4.3c-0.4-0.5-0.8-1.1-1.2-1.6c0.4,0.5,0.8,1,1.2,1.6 C372.1,243.3,373.4,244.7,374.6,246.2z M370.6,226.6c0.1,0.2,0.2,0.3,0.3,0.5C370.7,226.9,370.6,226.7,370.6,226.6z M371.6,197.6 c-0.4,0.4-0.9,0.8-1.3,1.3c-0.2,0.2-0.3,0.5-0.5,0.7c0.2-0.2,0.3-0.5,0.5-0.7C370.8,198.4,371.2,198,371.6,197.6z M367,206.6 c-0.3,2.2-0.4,4.4-0.3,6.9c0.1,0.6,0.1,1.2,0.2,1.8c-0.1-0.6-0.2-1.2-0.2-1.8C366.6,211.1,366.7,208.8,367,206.6 c0.3-1.3,0.6-2.6,1.1-3.8C367.7,204,367.3,205.3,367,206.6z M367,236.3c-0.4-0.6-0.8-1.3-1.2-1.9C366.2,235,366.6,235.7,367,236.3z M360.4,222.5c0.4,1.5,1,3,1.6,4.5C361.4,225.5,360.8,224,360.4,222.5z M346.1,379.8c-1.8,1.4-3.7,2.7-5.8,4 C342.4,382.5,344.3,381.2,346.1,379.8c0.7-0.5,1.6-0.8,2.5-0.8c1.2,0,2.4,0.5,3.1,1.5c0,0,0,0,0,0.1c0,0,0,0,0-0.1 c-0.8-0.9-1.9-1.5-3.1-1.5C347.7,378.9,346.8,379.2,346.1,379.8z M360.2,302.7c-0.3-0.3-0.5-0.5-0.8-0.7 C359.7,302.2,360,302.4,360.2,302.7c1.2,0.9,2.5,1.8,3.8,2.7C362.7,304.5,361.5,303.6,360.2,302.7z M336.8,279.9 C336.8,279.9,336.8,279.9,336.8,279.9c1.2,1.6,2.5,3.1,3.8,4.7l3.6,3.5l0.1,0.1l-0.1-0.1l-3.6-3.5C339.3,283,338,281.5,336.8,279.9 z M339.2,384.5l-0.3,0.2c-0.5,0.3-1,0.6-1.5,0.9c0.5-0.3,1-0.6,1.5-0.9L339.2,384.5z M344.1,277c-0.5-0.4-1-0.8-1.5-1.2 c0,0-0.1-0.1-0.1-0.1c0,0,0,0,0,0c0,0,0,0,0,0c0,0,0,0,0,0C343,276.1,343.6,276.5,344.1,277l0.3,0.3l0.3,0.3l2.6,2.6l2.6,2.6 c0.5,0.5,0.9,0.9,1.4,1.4c-0.5-0.5-0.9-0.9-1.4-1.4l-2.6-2.6l-2.6-2.6l-0.3-0.3L344.1,277z M336,278.9l0.2,0.2c0,0,0.1,0.1,0.1,0.1 c0,0-0.1-0.1-0.1-0.1L336,278.9c-2.1,1-4.1,2-6,2.9C331.9,280.9,333.9,279.9,336,278.9z M324.6,283.9c0.3,0,0.5,0,0.8-0.1 C325.1,283.8,324.8,283.9,324.6,283.9c-1.3,0-2.5-0.7-3.3-1.7C322.1,283.2,323.3,283.9,324.6,283.9z M320.6,279.5 c0.1-0.9,0.5-1.7,1.1-2.3C321,277.8,320.7,278.6,320.6,279.5z M333.5,387.7c-0.4,0.2-0.9,0.5-1.3,0.7 C332.6,388.2,333.1,388,333.5,387.7z M361.7,386.7c0.2,0.1,0.4,0.3,0.7,0.4C362.2,387,362,386.9,361.7,386.7L361.7,386.7 L361.7,386.7z M346.7,263.7l-0.7,0.4L346.7,263.7c1-0.6,2.1-1.2,3.1-1.7C348.7,262.5,347.7,263.1,346.7,263.7z M328,274 c0.6-0.3,1.1-0.5,1.7-0.8C329.1,273.5,328.6,273.7,328,274z M320.5,279.7C320.5,279.7,320.6,279.7,320.5,279.7 C320.6,279.7,320.5,279.7,320.5,279.7z M378.8,395.6c-2.4-0.8-4.9-1.7-7.3-2.9C374,393.9,376.4,394.8,378.8,395.6z M390.1,310.8 C390.1,310.8,390.1,310.8,390.1,310.8C390.1,310.8,390.1,310.8,390.1,310.8c0.5-1.3,1-2.6,1.4-3.9c0,0.1-0.1,0.3-0.1,0.4 C391,308.5,390.6,309.7,390.1,310.8z M392.3,304.4c-0.1,0.3-0.1,0.5-0.2,0.8C392.1,304.9,392.2,304.7,392.3,304.4z M389.4,310.6 c-0.3-0.1-0.6-0.2-0.9-0.4C388.8,310.3,389.1,310.4,389.4,310.6l0.2,0.1L389.4,310.6z M383.1,307.7c0.1,0,0.1,0.1,0.2,0.1 C383.2,307.7,383.2,307.7,383.1,307.7z M377.8,304.7l-0.7-0.4L377.8,304.7c0.7,0.4,1.4,0.8,2,1.1 C379.1,305.5,378.4,305.1,377.8,304.7z M376,303.7c-0.1-0.1-0.2-0.1-0.3-0.2C375.8,303.6,375.9,303.7,376,303.7l0.1,0.1L376,303.7z M355.1,287.7l-1.8-1.8l-0.4-0.3l0.4,0.3L355.1,287.7c0.8,0.8,1.7,1.6,2.6,2.5C356.8,289.4,355.9,288.5,355.1,287.7z M371.9,248.6 c-2,1.4-4,2.7-6.1,4C367.9,251.3,369.9,250,371.9,248.6z M358.9,214.7c0,0.6,0.1,1.1,0.2,1.7C359,215.8,358.9,215.3,358.9,214.7 c-0.1-1.6-0.3-3.5-0.1-5.4c0.1-1.5,0.3-2.9,0.6-4.2c-0.3,1.4-0.5,2.8-0.6,4.2C358.6,211.2,358.7,213.1,358.9,214.7z M121.8,125.1 c-0.8,1.6-1.6,3.3-2.3,5C120.3,128.4,121,126.8,121.8,125.1z M114.3,122.4c1.5-3.1,3.3-6.3,5.2-9.4 C117.5,116.2,115.8,119.3,114.3,122.4z M139,89.8C139,89.8,139,89.8,139,89.8L139,89.8L139,89.8z M139,89.8c0.3-0.3,0.7-0.5,1-0.8 C139.7,89.3,139.3,89.5,139,89.8C139,89.8,139,89.8,139,89.8z M197.2,80.4c1.7,0.3,3.4,0.7,5.1,1.2 C200.7,81.1,198.9,80.7,197.2,80.4c-2.6-0.3-5.2-0.4-7.9-0.4c-3.2,0-6.4,0.2-9.5,0.6c-3.3,0.5-6.5,1.2-9.7,2.1 c3.2-0.9,6.4-1.6,9.7-2.1c3.2-0.4,6.4-0.6,9.5-0.6C192,80,194.7,80.1,197.2,80.4z M280.4,137.6L280.4,137.6L280.4,137.6 L280.4,137.6z M280.4,137.6c0-0.1-0.1-0.2-0.1-0.3C280.4,137.4,280.4,137.5,280.4,137.6L280.4,137.6z M289.6,160.5 c-0.1-0.1-0.1-0.2-0.2-0.3l0-0.1l0,0.1C289.5,160.3,289.6,160.4,289.6,160.5z M285.2,151.7c-0.2-0.4-0.4-0.9-0.5-1.3 C284.8,150.9,285,151.3,285.2,151.7z M286.2,126c-0.3-3-0.3-5.6-0.1-8.1c0.1-1.3,0.2-2.5,0.3-3.3c0.2-0.8,0.3-1.5,0.4-2.2 c-0.1,0.7-0.3,1.4-0.4,2.2c-0.1,0.8-0.2,2.1-0.3,3.3C285.9,120.4,285.9,123.1,286.2,126c0.3,2.3,0.7,4.6,1.2,6.6 C286.9,130.6,286.5,128.4,286.2,126z M287.4,132.7C287.4,132.7,287.4,132.7,287.4,132.7C287.4,132.7,287.4,132.7,287.4,132.7z M280.7,138.7c-0.1-0.3-0.2-0.6-0.2-1l0-0.1l0,0.1C280.5,138.1,280.6,138.4,280.7,138.7z M280,135.8c0,0.2,0.1,0.3,0.1,0.5 C280,136.1,280,136,280,135.8c-0.1-0.3-0.1-0.5-0.2-0.8C279.8,135.3,279.9,135.6,280,135.8z M289.1,225 C289.1,225,289.1,225,289.1,225l3.4-1.4l-1.1,0.5C290.7,224.3,289.9,224.6,289.1,225C289.1,225,289.2,225,289.1,225L289.1,225z M200.2,307.2C200.2,307.2,200.2,307.2,200.2,307.2C200.2,307.2,200.3,307.2,200.2,307.2C200.3,307.2,200.2,307.2,200.2,307.2z M200.2,307.2c-0.1-0.6-0.2-1.2-0.2-1.9c0-0.3-0.1-0.6-0.2-0.9c0.1,0.3,0.2,0.6,0.2,0.9C200,305.9,200.1,306.6,200.2,307.2 C200.2,307.2,200.2,307.2,200.2,307.2z M202.3,315.5c0,0.1,0.1,0.1,0.1,0.2C202.4,315.7,202.4,315.6,202.3,315.5 C202.3,315.5,202.3,315.5,202.3,315.5z M202.1,315C202.1,315,202.1,315,202.1,315C202.1,315,202.1,315,202.1,315L202.1,315z M201.4,307c0.3,0,0.5-0.1,0.7-0.1C201.9,306.9,201.7,307,201.4,307z M265.1,180C265.1,180,265.1,180,265.1,180c0,0.1,0,0.1,0,0.2 c-0.1,1.1-0.2,2.3-0.3,3.4c-0.7,4.9-1.9,9.8-3.5,14.5c1.6-4.7,2.8-9.6,3.5-14.5c0.1-1.1,0.3-2.3,0.3-3.4 C265.1,180.1,265.1,180.1,265.1,180z M257.6,135c0.1,0.3,0.2,0.6,0.4,0.9C257.9,135.6,257.7,135.3,257.6,135z M254.3,212.4 c-1.2,2-2.6,3.9-4,5.8c-0.8,1-1.6,1.9-2.4,2.9c0.8-0.9,1.6-1.9,2.4-2.9C251.8,216.4,253.1,214.4,254.3,212.4z M212.6,251.9 c-0.1,0-0.1,0-0.2,0c0,0,0,0,0,0C212.5,251.9,212.5,251.9,212.6,251.9z M221.2,301c0.3-0.1,0.7-0.3,1.1-0.4 C221.9,300.7,221.5,300.9,221.2,301L221.2,301L221.2,301z M212.3,251.9C212.3,251.9,212.2,251.9,212.3,251.9c-0.1,0-0.1,0-0.1,0 C212.2,251.9,212.2,251.9,212.3,251.9C212.2,251.9,212.3,251.9,212.3,251.9z M225.2,299.4L225.2,299.4L225.2,299.4 c0.7-0.3,1.5-0.6,2.3-1C226.7,298.8,225.9,299.1,225.2,299.4z M249.2,297.6l1.1-0.5L249.2,297.6l-1.1,0.5L249.2,297.6z M250.5,287.9c0.2-0.1,0.4-0.2,0.5-0.3c0.1-0.1,0.3-0.2,0.4-0.2c-0.1,0.1-0.2,0.1-0.4,0.2C250.9,287.7,250.7,287.8,250.5,287.9z M286.5,234.9l0.2-0.1L286.5,234.9c-0.2,0.1-0.4,0.2-0.6,0.3C286.1,235,286.3,234.9,286.5,234.9z M280,272.4c0.1,0,0.3,0,0.4,0 c1.1,0,2.2,0.2,3.2,0.7c-1-0.4-2.1-0.6-3.2-0.6C280.3,272.4,280.2,272.4,280,272.4c-0.5,0-0.9,0.1-1.4,0.2 C279.1,272.5,279.6,272.4,280,272.4z M269.1,286.1c-0.1,0.1-0.3,0.2-0.4,0.2C268.8,286.3,269,286.2,269.1,286.1z M262.6,290.1 c-0.9,0.6-1.9,1.1-2.8,1.7C260.7,291.2,261.7,290.6,262.6,290.1z M280.3,280.4l0.2,0l0,0c0,0,0,0,0,0L280.3,280.4 c-0.5,0.2-1,0.4-1.5,0.6C279.3,280.8,279.8,280.6,280.3,280.4z M281.3,280.9c-0.1-0.1-0.2-0.2-0.3-0.2 C281,280.7,281.2,280.8,281.3,280.9c0.7,0.7,1.3,1.5,1.9,2.4C282.6,282.4,281.9,281.6,281.3,280.9z M237.3,231.3 c-2.2,1.7-4.5,3.2-6.9,4.7C232.8,234.5,235.1,233,237.3,231.3c2.8-2.2,5.4-4.6,7.8-7.1C242.7,226.7,240.1,229.1,237.3,231.3z M217.3,242.2c0.2-0.1,0.4-0.1,0.6-0.2C217.7,242.1,217.5,242.1,217.3,242.2z M213.9,243.3c-0.4,0.1-0.9,0.3-1.3,0.4c0,0,0,0,0,0 c-0.1,0-0.1,0-0.2,0c0.1,0,0.1,0,0.2-0.1c0.5-0.1,1.1-0.3,1.6-0.5C214.1,243.2,214,243.3,213.9,243.3z M203.2,245.4 c0.7-0.1,1.4-0.1,2-0.2c2-0.3,3.7-0.7,5.2-1c0.4-0.1,0.7-0.2,1.1-0.3c-0.4,0.1-0.7,0.2-1.1,0.3c-1.6,0.3-3.2,0.7-5.2,1 C204.5,245.3,203.8,245.4,203.2,245.4l-0.2,0c-0.4,0-0.8,0.1-1.1,0.1c-0.8,0.1-1.5,0.1-2.3,0.2c-0.4,0-0.8,0-1.2,0.1 c-1.5,0.1-3,0.2-4.5,0.2l-1.6,0.1c-0.4,0-0.8,0-1.2,0l-0.4,0l0.4,0c0.4,0,0.8,0,1.2,0l1.6-0.1c1.5-0.1,3-0.1,4.5-0.2 c0.4,0,0.8-0.1,1.2-0.1c0.8,0,1.5-0.1,2.3-0.2c0.4,0,0.8-0.1,1.1-0.1L203.2,245.4z M212.1,251.9c-0.6,0.1-1.2,0.3-1.8,0.4 C210.9,252.2,211.5,252.1,212.1,251.9C212.1,251.9,212.1,251.9,212.1,251.9z M216,311.3c0.2-0.1,0.4-0.1,0.6-0.2 C216.4,311.2,216.2,311.3,216,311.3L216,311.3L216,311.3z M229.5,306.3c0,0-0.1,0-0.1,0C229.5,306.3,229.5,306.3,229.5,306.3z M246.6,342.6l0.1-0.1C246.7,342.5,246.6,342.6,246.6,342.6l0.2,0c0,0,0,0,0,0L246.6,342.6z M246.6,342.6l-0.1,0l-0.1,0 L246.6,342.6L246.6,342.6z M277.6,326.3c-0.3,0.2-0.7,0.4-1,0.6C276.9,326.7,277.2,326.5,277.6,326.3z M288.1,276.5 c-0.3-0.4-0.6-0.7-1-1C287.5,275.8,287.8,276.2,288.1,276.5c0.3,0.3,0.5,0.7,0.8,1C288.6,277.2,288.3,276.9,288.1,276.5z M262.3,252.1c-0.6,0.5-1.4,0.7-2.2,0.7c-1,0-1.9-0.3-2.6-0.9c0.7,0.6,1.6,0.9,2.6,0.9C261,252.8,261.7,252.6,262.3,252.1 c1.7-1.3,3.3-2.6,4.9-3.8C265.6,249.5,264,250.8,262.3,252.1z M257.9,283.7c-0.5,0.3-1,0.6-1.5,0.9 C256.9,284.2,257.4,284,257.9,283.7z M255.5,224.5c-0.4,0.5-0.9,1-1.3,1.5C254.6,225.5,255.1,225,255.5,224.5 c0.3-0.4,0.6-0.8,0.9-1.2C256.1,223.7,255.8,224.1,255.5,224.5z M273,180.6C273,180.6,273,180.6,273,180.6c0-0.1,0-0.1,0-0.2 c0,0,0,0,0,0c0,0,0,0,0,0c-0.1,1.2-0.2,2.4-0.4,3.5C272.8,182.8,272.9,181.7,273,180.6z M265.2,175.7v0.3c0,1.3-0.1,2.6-0.1,3.9 c0,0,0,0.1,0,0.1c0,0,0-0.1,0-0.1c0-1.3,0.1-2.6,0.1-3.9L265.2,175.7c0-0.2,0-0.4,0-0.5c0-0.2,0-0.4,0-0.6c0-0.3,0-0.6,0-0.9v-0.2 c-0.1-4.3-0.4-8.6-0.9-12.9l-0.2-1.2l0-0.3l0-0.2c-0.1-0.3-0.1-0.5-0.1-0.8l-0.1-0.5l-0.1-0.5l0-0.1l-0.1-0.7l-0.1-0.7 c-0.5-2.4-1-4.7-1.6-7c0.6,2.3,1.1,4.6,1.6,7l0.1,0.7l0.1,0.7l0,0.1l0.1,0.5l0.1,0.5c0,0.3,0.1,0.6,0.1,0.8l0,0.2l0,0.3l0.2,1.2 c0.5,4.3,0.9,8.6,0.9,12.9v0.2c0,0.3,0,0.6,0,0.9c0,0.2,0,0.4,0,0.6C265.2,175.3,265.2,175.5,265.2,175.7z M243.6,110.2 c-2.2-2.8-4.6-5.5-7.1-8.1C239,104.7,241.4,107.4,243.6,110.2c2.1,2.8,4.1,5.7,6,8.8C247.7,115.9,245.7,113,243.6,110.2z M227.7,94.3c-2.4-1.8-4.8-3.4-7.3-4.9C222.9,90.9,225.4,92.5,227.7,94.3c1.9,1.5,3.7,3.1,5.5,4.7 C231.5,97.3,229.6,95.8,227.7,94.3z M190.7,246.2h-0.4c-0.3,0-0.7,0-1,0l-0.9,0l-1.2,0c-0.5,0-1,0-1.5,0 c-5.8-0.3-11.6-1.2-17.3-2.6c5.7,1.4,11.5,2.3,17.3,2.6c0.5,0,1,0,1.5,0l1.2,0l0.9,0c0.3,0,0.7,0,1,0L190.7,246.2z M163.9,76.1 c0.7-0.2,1.5-0.5,2.3-0.7C165.4,75.7,164.6,75.9,163.9,76.1z M141.3,88c0.3-0.2,0.7-0.5,1-0.7C142,87.5,141.6,87.7,141.3,88z M141.5,98.1c1.2-1.1,2.5-2.1,3.8-3.2c1.1-0.8,2.2-1.6,3.3-2.3c-1.1,0.8-2.2,1.5-3.3,2.3C143.9,96,142.7,97.1,141.5,98.1 c-2.5,2.5-5,5.2-7.4,8.1C136.5,103.3,138.9,100.6,141.5,98.1z M144,86.1c0.4-0.2,0.7-0.5,1.1-0.7C144.7,85.6,144.4,85.8,144,86.1z M146.9,84.2c0.3-0.2,0.6-0.4,0.9-0.6C147.5,83.8,147.2,84,146.9,84.2z M150,236.6c-0.4-0.2-0.9-0.5-1.3-0.7 C149.1,236.1,149.5,236.4,150,236.6z M133.3,223.9c0.8,0.8,1.6,1.6,2.4,2.4C134.8,225.5,134,224.7,133.3,223.9 c-0.5-0.6-1-1.1-1.5-1.7C132.3,222.8,132.8,223.3,133.3,223.9z M181.4,253.8c2.9,0.2,5.7,0.3,8.3,0.3c0.8,0,1.6,0,2.4,0 c1.6,0,3.2-0.1,4.6-0.2l1.5-0.1c1.8-0.1,3.7-0.2,6.2-0.5c0.5,0,1-0.1,1.5-0.2c-0.5,0.1-1,0.1-1.5,0.2c-2.5,0.3-4.4,0.4-6.2,0.5 l-1.5,0.1c-1.3,0.1-3,0.2-4.6,0.2c-0.8,0-1.6,0-2.4,0C187.1,254.1,184.3,254,181.4,253.8c-1.6-0.1-3.1-0.3-4.7-0.5 C178.3,253.5,179.9,253.7,181.4,253.8z M203.6,306.6c-0.1,0-0.1,0-0.2,0C203.5,306.6,203.5,306.6,203.6,306.6z M203,306.7 c-0.2,0-0.4,0.1-0.6,0.1C202.6,306.8,202.8,306.8,203,306.7z M188.1,265c-0.2,0-0.4,0-0.6,0c-0.4,0-0.8,0.1-1.2,0.2c0,0,0,0,0,0 c0.4-0.2,0.8-0.2,1.2-0.2C187.7,264.9,187.9,265,188.1,265z M178,264.5c0.6,0.1,1.1,0.2,1.7,0.3l0.2,0c0.3,0,0.6,0.1,0.9,0.1 c-0.3,0-0.6-0.1-0.9-0.1l-0.2,0C179.1,264.7,178.6,264.6,178,264.5l-0.1,0L178,264.5z M185.7,265.2c-0.2,0-0.5,0-0.7,0l-0.3,0 l-0.4,0c-0.3,0-0.6,0-1,0c0.3,0,0.6,0,1,0l0.4,0l0.3,0C185.2,265.2,185.4,265.2,185.7,265.2l0.5,0c0,0,0,0,0,0c0,0,0,0,0,0l0,0h0 c0,0,0,0,0,0L185.7,265.2z M189.4,264.9l-0.4,0L189.4,264.9c0.6-0.1,1.1-0.2,1.5-0.3C190.4,264.8,189.9,264.9,189.4,264.9z M193,264.3c1,0,1.9,0.4,2.6,1C194.9,264.7,194,264.3,193,264.3c-0.2,0-0.5,0-0.7,0.1C192.5,264.3,192.8,264.3,193,264.3z M195.4,302c0.2,0,0.4,0,0.6,0c1.1,0,2.2,0.5,3,1.3c-0.8-0.8-1.9-1.3-3-1.3C195.8,302,195.6,302,195.4,302c-0.2,0-0.5,0.1-0.7,0.2 C194.9,302.1,195.2,302.1,195.4,302z M198.8,328.7c-0.1-0.1-0.1-0.3-0.2-0.4C198.7,328.4,198.8,328.6,198.8,328.7z M202.6,316.2 C202.6,316.2,202.6,316.2,202.6,316.2c0.1,0.4,0.3,0.8,0.4,1.2C202.8,317,202.7,316.6,202.6,316.2 C202.6,316.2,202.6,316.2,202.6,316.2z M202.1,315L202.1,315c0.6-0.1,1.2-0.2,1.8-0.3C203.3,314.7,202.7,314.9,202.1,315z M203.7,319.3c0,0,0-0.1,0-0.1C203.7,319.2,203.7,319.2,203.7,319.3z M203.1,317.6C203.1,317.6,203.1,317.6,203.1,317.6 c0-0.1-0.1-0.2-0.1-0.3C203,317.5,203.1,317.6,203.1,317.6z M220.6,349.3l0.2,0c0.4-0.1,0.8-0.1,1.2-0.1l0.4-0.1 c2-0.3,4.1-0.5,6-0.9c1.2-0.2,2.3-0.5,3.3-0.7c-1.1,0.3-2.2,0.5-3.4,0.7c-2,0.4-4,0.7-6,0.9l-0.4,0.1c-0.4,0-0.8,0.1-1.2,0.1 L220.6,349.3c-0.2,0-0.4,0-0.5,0.1C220.3,349.4,220.5,349.3,220.6,349.3z M292.6,315.9c1.6-1.2,3-2.3,4.3-3.5 c0.1-0.1,0.1-0.1,0.2-0.2l0-0.1l0,0.1c-0.1,0.1-0.1,0.1-0.2,0.2C295.5,313.6,294.1,314.7,292.6,315.9c-1.9,1.5-3.8,2.9-5.8,4.3 C288.7,318.8,290.6,317.4,292.6,315.9z M295.4,308.4L295.4,308.4c0.1,0.2,0.1,0.3,0.2,0.4C295.5,308.7,295.5,308.6,295.4,308.4 L295.4,308.4z M296.9,213.3c0.6-0.2,1.1-0.4,1.6-0.7C298,212.9,297.4,213.1,296.9,213.3z M295.7,155.1c0.1,0.2,0.2,0.4,0.3,0.6 l0,0.1c0.3,0.5,0.6,1.1,0.9,1.6c-0.3-0.5-0.6-1.1-0.9-1.6l-0.1-0.1C295.9,155.5,295.8,155.3,295.7,155.1z M317.7,155.9 c0.1,0.1,0.2,0.2,0.2,0.3C317.9,156.1,317.8,156,317.7,155.9c-2.7-3.5-4.9-7.3-6.8-11.7C312.8,148.5,315.1,152.4,317.7,155.9z M309.3,165.1c-0.2,0.1-0.4,0.2-0.7,0.3C308.9,165.3,309.1,165.2,309.3,165.1z M318.2,156.5c0.1,0.1,0.1,0.1,0.2,0.2 C318.4,156.6,318.3,156.6,318.2,156.5z M318.8,157.2c0.1,0.1,0.1,0.1,0.2,0.2C318.9,157.3,318.9,157.2,318.8,157.2z M319.5,157.9 c0.1,0.1,0.1,0.1,0.2,0.2C319.6,158,319.6,158,319.5,157.9z M320.2,158.6c0,0,0.1,0.1,0.1,0.1c0,0,0,0,0,0 C320.2,158.7,320.2,158.6,320.2,158.6z M319.3,143.3c0.4,0.8,0.8,1.6,1.3,2.4C320.1,144.9,319.7,144.1,319.3,143.3z M326.5,154.1 c0.1,0,0.2,0,0.3,0c0,0,0,0,0,0C326.6,154.1,326.5,154.1,326.5,154.1z M327.2,153.9c0,0-0.1,0.1-0.1,0.1c0,0,0,0,0,0 C327.1,154,327.1,153.9,327.2,153.9z M326.8,153.9C326.8,153.9,326.8,153.9,326.8,153.9c-1-0.9-1.8-1.8-2.6-2.7 C325,152.1,325.8,153,326.8,153.9C326.8,153.9,326.8,153.9,326.8,153.9C326.8,153.9,326.8,153.9,326.8,153.9 C326.8,153.9,326.8,153.9,326.8,153.9z M321.5,120.8c0.1,0.1,0.1,0.3,0.2,0.4C321.6,121,321.6,120.9,321.5,120.8z M314.6,110.1 C314.6,110.1,314.6,110.1,314.6,110.1C314.6,110.1,314.6,110.1,314.6,110.1L314.6,110.1c-0.3,0.9-0.5,1.7-0.7,2.5 c-0.5,3.6-0.6,7.5-0.3,11.5c0.2,1.3,0.4,2.6,0.6,4c-0.2-1.3-0.5-2.6-0.6-4c-0.3-4-0.2-7.9,0.3-11.5 C314.1,111.8,314.3,111,314.6,110.1L314.6,110.1C314.6,110.1,314.6,110.1,314.6,110.1C314.6,110.1,314.6,110.1,314.6,110.1 c0.2,0.2,0.3,0.4,0.5,0.6C315,110.5,314.8,110.3,314.6,110.1z M305.6,121.3c0.1,4.7,0.9,9.6,2.4,14.5 C306.5,130.9,305.7,126.1,305.6,121.3c-0.1-3.5,0.1-6.6,0.5-9.6c0.1-0.5,0.2-1,0.3-1.6c-0.1,0.5-0.2,1.1-0.3,1.6 C305.6,114.7,305.5,117.8,305.6,121.3z M304.4,167.3c-1.1-1.1-2.1-2.2-2.9-3.4l-0.8-1l0.8,1C302.3,165.1,303.3,166.2,304.4,167.3 c0.2-0.1,0.5-0.2,0.7-0.3C304.8,167.1,304.6,167.2,304.4,167.3z M298.8,109.1c-2.3,0.2-4.6,0.5-6.8,0.8c-0.9,0.1-1.8,0.2-2.6,0.4 l-0.2,0l-1.7,0.2l0,0l0,0l0,0l1.7-0.2l0.2,0c0.9-0.1,1.8-0.2,2.6-0.4C294.2,109.6,296.5,109.3,298.8,109.1c0.9-0.1,1.8-0.2,2.7-0.3 C300.6,108.9,299.7,109,298.8,109.1z M293.9,101.7c-0.7,0.1-1.4,0.2-2.1,0.3c-0.9,0.1-1.8,0.2-2.6,0.3l-0.1,0l0.1,0 c0.9-0.1,1.8-0.2,2.6-0.3C292.5,101.9,293.2,101.8,293.9,101.7C293.9,101.7,293.9,101.7,293.9,101.7z M284.2,103.1 c-0.2,0-0.4,0.1-0.6,0.2C283.8,103.2,284,103.1,284.2,103.1c1.1-0.2,2.1-0.4,3.2-0.5C286.3,102.7,285.2,102.9,284.2,103.1z M281.5,104.8c0.3-0.4,0.7-0.8,1.1-1C282.2,104.1,281.8,104.4,281.5,104.8z M280.6,106.2C280.6,106.2,280.6,106.2,280.6,106.2 c0.1-0.2,0.2-0.3,0.3-0.5C280.8,105.9,280.7,106.1,280.6,106.2z M280.6,106.3C280.6,106.3,280.6,106.3,280.6,106.3 C280.6,106.3,280.6,106.3,280.6,106.3C280.6,106.3,280.6,106.3,280.6,106.3C280.6,106.3,280.6,106.3,280.6,106.3z M280.5,106.4 c-0.2,0.3-0.4,0.7-0.6,1C280.1,107.1,280.3,106.7,280.5,106.4C280.5,106.4,280.5,106.4,280.5,106.4z M278.1,124.1 c0.2,2.8,0.6,5.8,1.3,9.4c0.1,0.3,0.1,0.7,0.2,1c-0.1-0.3-0.2-0.7-0.2-1C278.7,129.9,278.2,126.9,278.1,124.1 c-0.3-5.1,0.1-10,1.3-14.6C278.2,114.1,277.8,119,278.1,124.1z M279.7,224.6c-3,4.1-6.1,7.7-9.4,10.7c-4,3.6-8.3,7-12.5,10.2 l-0.1,0.1c-1.6,1.2-2.1,3.3-1.3,4.9c-0.8-1.7-0.3-3.7,1.3-4.9l0.1-0.1c4.2-3.2,8.5-6.6,12.5-10.2 C273.6,232.3,276.7,228.7,279.7,224.6z M271.3,154.6l-0.1-0.5L271.3,154.6L271.3,154.6L271.3,154.6z M271.1,153.4l0-0.2 L271.1,153.4L271.1,153.4L271.1,153.4z M271,152.8c-0.2-1-0.4-2.1-0.7-3.1C270.6,150.7,270.8,151.7,271,152.8L271,152.8L271,152.8z M267.7,139.6c0.1,0.2,0.1,0.4,0.2,0.6C267.8,140,267.7,139.8,267.7,139.6z M265.3,132.9c0.1,0.2,0.1,0.4,0.2,0.5 C265.4,133.2,265.4,133,265.3,132.9z M250.4,56.8c2.4,1.2,4.8,2.4,7.2,3.8C255.2,59.2,252.8,57.9,250.4,56.8z M250,105.5 c-3.4-4.3-7-8.4-11-12.1c-4.9-4.5-10.2-8.5-15.7-11.7c5.5,3.2,10.8,7.1,15.7,11.7C243,97.1,246.6,101.2,250,105.5z M199.1,72.6 C199.1,72.6,199.1,72.6,199.1,72.6C199.1,72.6,199.1,72.6,199.1,72.6c1,0.2,2.1,0.4,3.2,0.7C201.2,73.1,200.1,72.8,199.1,72.6z M197.4,72.4c-2.7-0.3-5.4-0.4-8.1-0.4c-5.6,0-11.2,0.6-16.6,1.7c-0.1,0-0.3,0-0.4,0.1c-0.1,0-0.3,0.1-0.4,0.1l-0.1,0l-0.2,0 c0,0,0,0-0.1,0c0,0,0,0,0.1,0l0.1,0l0.1,0c0.1,0,0.3-0.1,0.4-0.1c0.1,0,0.3-0.1,0.4-0.1c5.4-1.1,11-1.7,16.6-1.7 C192,72,194.8,72.2,197.4,72.4c0.1,0,0.3,0,0.4,0.1C197.7,72.5,197.6,72.4,197.4,72.4z M139,89.7C139,89.7,139,89.7,139,89.7 c-0.5,0.4-1,0.9-1.6,1.4c0,0,0,0,0,0C137.9,90.6,138.4,90.2,139,89.7L139,89.7z M136.9,91.6C136.9,91.6,136.8,91.6,136.9,91.6 C136.8,91.6,136.9,91.6,136.9,91.6C136.9,91.6,136.9,91.5,136.9,91.6C136.9,91.5,136.9,91.6,136.9,91.6z M136.3,92.1 c-0.5,0.5-1,0.9-1.5,1.4C135.3,93,135.8,92.5,136.3,92.1C136.3,92.1,136.3,92.1,136.3,92.1z M132.4,95.8L132.4,95.8 c-0.4,0.4-0.6,0.6-0.9,0.9c-0.3,0.3-0.6,0.7-0.7,1.1c0,0,0,0,0,0c0.2-0.4,0.4-0.8,0.7-1.1C131.8,96.4,132,96.2,132.4,95.8 L132.4,95.8c0.6-0.7,1.3-1.3,2-1.9C133.7,94.5,133,95.1,132.4,95.8z M130.7,97.9C130.7,97.9,130.7,97.9,130.7,97.9 C130.7,97.9,130.7,97.9,130.7,97.9C130.7,97.9,130.7,97.9,130.7,97.9C130.7,97.9,130.7,97.9,130.7,97.9z M130.7,97.9 c-1.6,1.8-3.1,3.6-4.6,5.6C127.5,101.6,129.1,99.7,130.7,97.9C130.7,97.9,130.7,97.9,130.7,97.9z M111.2,129.7 c-0.1,0.3-0.2,0.7-0.4,1C110.9,130.3,111,130,111.2,129.7z M109.9,133.1c-0.1,0.4-0.2,0.8-0.4,1.2 C109.7,133.9,109.8,133.5,109.9,133.1z M108.8,136.9c-0.1,0.3-0.2,0.7-0.3,1C108.6,137.6,108.7,137.2,108.8,136.9z M107.6,141.6 c0,0.1,0,0.1,0,0.2C107.6,141.7,107.6,141.7,107.6,141.6z M106.9,145.4c-0.1,0.4-0.1,0.7-0.2,1.1 C106.8,146.1,106.8,145.8,106.9,145.4z M106.3,149.4c-0.1,0.4-0.1,0.8-0.2,1.2C106.2,150.2,106.2,149.8,106.3,149.4z M113.3,159.9 c0.3-6.6,1.3-13.1,2.8-19.1C114.5,146.9,113.6,153.3,113.3,159.9c-0.1,4.7,0,9.7,0.4,15.8c0.2,2.9,0.4,5.3,0.8,7.6 c0.3,2.3,0.7,4.6,1.3,7.1c0.6,2.7,1.3,5,2,7.1c-0.7-2.1-1.4-4.4-2-7.1c-0.5-2.5-1-4.8-1.3-7.1c-0.3-2.4-0.5-4.8-0.8-7.6 C113.3,169.6,113.1,164.6,113.3,159.9z M130.7,232.6c2.5,2.4,5.2,4.6,8.2,6.6C135.9,237.1,133.2,234.9,130.7,232.6 c-0.6-0.6-1.2-1.1-1.7-1.7C129.5,231.4,130.1,232,130.7,232.6z M157.6,258.3c-0.8-0.4-1.7-0.8-2.4-1.1 C156,257.6,156.8,257.9,157.6,258.3z M172.6,263.5c0.1,0,0.2,0,0.3,0.1C172.8,263.6,172.7,263.6,172.6,263.5 c-0.7-0.1-1.4-0.3-2.1-0.4C171.2,263.3,171.9,263.4,172.6,263.5z M179.7,278.1c-0.2,0.2-0.4,0.3-0.6,0.5c-0.2,0.2-0.3,0.3-0.5,0.5 c0.2-0.2,0.3-0.3,0.5-0.5C179.3,278.4,179.5,278.3,179.7,278.1z M181.3,341.9c-0.1,0-0.1,0.1-0.2,0.1 C181.2,341.9,181.2,341.9,181.3,341.9z M188,273.1C188,273.1,188,273.1,188,273.1c0.2,0,0.4,0,0.6-0.1c1.1-0.1,2.2-0.3,3.3-0.5 l0.4-0.1c0.2,0,0.4-0.1,0.7-0.1c-0.2,0-0.4,0.1-0.7,0.1l-0.4,0.1c-1.1,0.2-2.2,0.3-3.3,0.5C188.4,273,188.2,273.1,188,273.1 c-0.2,0.1-0.5,0.2-0.7,0.3C187.5,273.3,187.8,273.2,188,273.1z M192.9,303.6c0.2-0.2,0.4-0.4,0.6-0.6 C193.2,303.1,193,303.3,192.9,303.6c-0.6,0.8-0.8,1.8-0.7,3c0.1,1.2,0.3,2.5,0.5,3.8c-0.2-1.3-0.4-2.6-0.5-3.8 C192,305.3,192.3,304.4,192.9,303.6z M214.4,342c-1.1-1.9-2-3.7-2.9-5.4C212.3,338.4,213.3,340.1,214.4,342z M253.6,348.2 c-1.7,0.8-3.6,1.6-5.5,2.4C250.1,349.8,251.9,349,253.6,348.2z M294,324.8l0.4-0.3L294,324.8c-1.3,0.9-2.5,1.9-3.8,2.7 C291.4,326.7,292.7,325.7,294,324.8z M302.5,318c0.1-0.1,0.2-0.2,0.2-0.2c0.1-0.1,0.2-0.2,0.3-0.3l0.1-0.1c0.1-0.1,0.2-0.2,0.2-0.2 c0.1-0.1,0.2-0.2,0.2-0.3c-0.1,0.1-0.2,0.2-0.2,0.3c-0.1,0.1-0.1,0.1-0.2,0.2l-0.1,0.1c-0.1,0.1-0.2,0.2-0.3,0.3 C302.7,317.8,302.6,317.9,302.5,318c-2.4,2.1-4.9,4-7.4,5.9C297.6,322,300.2,320.1,302.5,318z M305.1,312.3c0-0.1,0-0.2,0-0.4 c0-0.2,0-0.3-0.1-0.5l-0.1-0.3c-0.1-0.4-0.2-0.8-0.4-1.3c0-0.1-0.1-0.2-0.1-0.3c0,0.1,0.1,0.2,0.1,0.3c0.2,0.4,0.3,0.9,0.4,1.3 l0.1,0.3c0,0.2,0,0.3,0.1,0.5C305.1,312,305.1,312.1,305.1,312.3c0,0,0,0.1,0,0.1c0,0.3,0,0.7,0,1.1l0,0.2c0,0.1,0,0.3-0.1,0.4 c0-0.1,0-0.2,0.1-0.4l0-0.2c0-0.4,0.1-0.7,0-1.1C305.1,312.3,305.1,312.3,305.1,312.3z M320.5,393.8c-1.3,0.5-2.7,1-4.3,1.5 C317.8,394.8,319.2,394.3,320.5,393.8z M330,398.4c-0.1,0.1-0.2,0.1-0.4,0.2C329.7,398.5,329.9,398.4,330,398.4z M330.9,428.7 c-0.2-0.1-0.3-0.2-0.5-0.3C330.6,428.5,330.8,428.6,330.9,428.7z M348.6,387.9C348.6,387.9,348.6,387.8,348.6,387.9L348.6,387.9 L348.6,387.9C348.6,387.8,348.6,387.8,348.6,387.9c-0.3,0.2-0.6,0.4-1,0.6C348,388.3,348.3,388.1,348.6,387.9z M362.5,429.7 c-0.4,0.2-0.7,0.3-1.1,0.5C361.8,430,362.2,429.8,362.5,429.7z M370.4,401C370.4,401,370.3,401,370.4,401 C370.3,401,370.4,401,370.4,401z M380.3,404.2c-0.2-0.1-0.5-0.1-0.7-0.2C379.8,404.1,380,404.2,380.3,404.2z M412.7,311.7 c-0.1,0-0.1,0-0.2,0c-0.1,0-0.3-0.1-0.4-0.1c0,0,0,0,0,0C412.3,311.6,412.5,311.7,412.7,311.7z M434.4,319.8c1.2,0.6,2.4,1.2,3.5,2 C436.7,321.1,435.6,320.4,434.4,319.8z M436.4,331c-0.4-0.5-0.8-0.9-1.2-1.3c-0.2-0.2-0.5-0.4-0.8-0.6c0.3,0.2,0.5,0.4,0.8,0.6 C435.6,330.1,436,330.5,436.4,331z M422.3,314.9c0.9,0.3,1.9,0.7,2.9,1C424.3,315.6,423.3,315.2,422.3,314.9z M401.8,323.2 c-0.1,0-0.3,0-0.4-0.1l-0.1,0l0.1,0C401.5,323.2,401.7,323.2,401.8,323.2z M401.2,323.1L401.2,323.1l-0.3-0.1L401.2,323.1 L401.2,323.1z M403.2,323.7c0.3,0.1,0.6,0.1,0.8,0.1c1,0,1.9-0.3,2.6-0.9c-0.7,0.6-1.6,0.9-2.6,0.9 C403.8,323.8,403.5,323.8,403.2,323.7z M403.2,323.7C403.2,323.7,403.2,323.7,403.2,323.7C403.2,323.7,403.2,323.7,403.2,323.7z M439.4,337.8C439.4,337.9,439.4,337.9,439.4,337.8C439.4,337.9,439.4,337.9,439.4,337.8z M442.6,325.9 C442.6,326,442.6,326,442.6,325.9l-0.1-0.1l-0.2-0.3c-0.8-0.9-1.7-1.7-2.6-2.4c0.9,0.7,1.8,1.5,2.6,2.4l0.2,0.3L442.6,325.9 c0.1-0.8,0.3-1.5,0.4-2.3c-0.1,0.7-0.2,1.3-0.3,2C442.7,325.7,442.6,325.8,442.6,325.9C442.6,326,442.6,326,442.6,325.9z M448.5,311.5C448.5,311.5,448.5,311.5,448.5,311.5l-0.1,0c-0.3,0-0.6,0-1,0.1c0.3-0.1,0.6-0.1,1-0.1L448.5,311.5 C448.6,311.5,448.6,311.5,448.5,311.5C448.6,311.5,448.6,311.5,448.5,311.5L448.5,311.5z M443,323.5l0.1-0.6 c0.2-1.2,0.4-2.4,0.6-3.6l0.1-0.7c0.1-0.4,0.1-0.7,0.2-1.1c-0.1,0.4-0.1,0.7-0.2,1.1l-0.1,0.7c-0.2,1.2-0.4,2.4-0.6,3.6L443,323.5z M451.5,311.1c-0.6,0.1-1.2,0.1-1.8,0.2c-0.3,0-0.7,0.1-1,0.2c0,0,0,0,0,0c0.3-0.1,0.7-0.2,1-0.2 C450.3,311.2,450.9,311.2,451.5,311.1c1.6-0.4,3-0.8,4.4-1.3C454.5,310.3,453.1,310.7,451.5,311.1z M444.5,299.9 c-0.6-0.1-1.1-0.3-1.7-0.4l-0.4-0.1l0.4,0.1C443.4,299.6,443.9,299.7,444.5,299.9z M417.7,295.9c0.4,0,0.8,0,1.2,0 c5.8,0.5,11.4,1.3,16.3,2c1.4,0.2,2.9,0.5,4.6,0.9c-1.7-0.4-3.2-0.7-4.6-0.9c-4.8-0.7-10.5-1.5-16.3-2 C418.5,295.9,418.1,295.9,417.7,295.9c-0.8,0-1.5,0-2.2,0.1c0,0,0,0,0,0C416.1,295.9,416.9,295.9,417.7,295.9z M441.4,299.2 c-0.5-0.1-1-0.2-1.4-0.3C440.4,298.9,440.9,299,441.4,299.2z M413.8,304.4l-0.1,0.9c-0.1,0.7-0.2,1.4-0.4,2.1 c0.1-0.7,0.3-1.4,0.4-2.1L413.8,304.4z M397.4,321.8c-0.4-0.1-0.7-0.2-1.1-0.4l-0.2-0.1l0.2,0.1C396.7,321.6,397,321.7,397.4,321.8 z M392.8,301.9c0,0.1,0,0.1,0,0.2C392.8,302,392.8,302,392.8,301.9c0.3-2,0.4-3.7,0.3-5.4c-0.1-0.7-0.3-1.5-0.5-2.1 c0.2,0.7,0.3,1.4,0.5,2.1C393.2,298.2,393.1,299.9,392.8,301.9z M389.7,288.7c-0.2-0.3-0.4-0.7-0.6-1l-0.1-0.1l0.1,0.1 C389.2,288.1,389.4,288.4,389.7,288.7z M381.3,278.2c1.4,1.7,2.9,3.3,4.3,5c0.5,0.6,1,1.3,1.5,1.9c-0.5-0.6-1-1.3-1.5-1.9 C384.2,281.6,382.7,279.9,381.3,278.2c-2.7-3.2-5.5-6.3-8.2-9.5c-1.6-1.9-3.3-3.9-4.6-5.5l-1.6-2l0,0h0c-1.1,0.6-2.2,1.2-3.2,1.9 c1.1-0.6,2.2-1.2,3.2-1.9l0,0c0,0,0,0,0,0h0l0,0l1.6,2c1.3,1.6,3,3.6,4.6,5.5C375.8,271.9,378.5,275.1,381.3,278.2z M384.9,238.7 l-0.4,0.4l-0.4,0.3c-0.9,0.7-1.8,1.5-2.8,2.2l-0.3-0.3l-0.3-0.4l-0.7-0.8c-0.8-1-1.7-1.9-2.5-2.9c-0.7-0.8-1.4-1.7-2-2.6 c0.6,0.9,1.3,1.7,2,2.6c0.8,1,1.6,2,2.5,2.9l0.7,0.8l0.3,0.4l0.3,0.3c0.9-0.7,1.9-1.5,2.8-2.2l0.4-0.3L384.9,238.7 c1.9-1.7,3.8-3.4,5.6-5.3c0.4-0.5,0.9-1,1.3-1.5c-0.4,0.5-0.9,1-1.3,1.5C388.7,235.3,386.8,237,384.9,238.7z M383.3,190.4 c0.7-0.4,1.3-0.8,1.9-1.2C384.6,189.5,384,189.9,383.3,190.4z M401.8,184.4c0.5,2.9,0.8,5.8,1.1,8.8l0,0.5c0.1,1.4,0.2,2.9,0.2,4.5 c0,1.2-0.1,2.4-0.1,3.5c-0.4,3.6-0.8,6.4-1.3,9.2c-0.3,1.7-0.6,3.3-1,5c-0.2,0.8-0.4,1.7-0.7,2.6c0.3-0.9,0.5-1.7,0.7-2.6 c0.3-1.7,0.7-3.3,1-5c0.5-2.8,0.9-5.6,1.3-9.2c0.1-1,0.1-2.2,0.1-3.5c0-1.6-0.1-3-0.2-4.5l0-0.5 C402.6,190.2,402.3,187.2,401.8,184.4c-0.3-1.5-0.7-2.9-1.2-4.1C401,181.5,401.4,182.8,401.8,184.4z M399.6,178.2L399.6,178.2 C399.6,178.2,399.6,178.2,399.6,178.2C399.6,178.2,399.6,178.2,399.6,178.2L399.6,178.2z M397.1,180.2l0.1-0.1l0.1-0.1l0.1-0.1 l0.1-0.1l0.1-0.1l0.1-0.1c0.2-0.2,0.5-0.4,0.7-0.6l0.3-0.2l0.1-0.1l0.2-0.1l0.1-0.1l0.1-0.1c0,0,0.1-0.1,0.1-0.1 c0-0.1,0.1-0.1,0.2-0.2c-0.1,0.1-0.1,0.1-0.2,0.2c0,0-0.1,0-0.1,0.1l-0.1,0.1l-0.1,0.1l-0.2,0.1l-0.1,0.1l-0.3,0.2 c-0.2,0.2-0.5,0.4-0.7,0.6l-0.1,0.1l-0.1,0.1l-0.1,0.1l-0.1,0.1l-0.1,0.1L397.1,180.2L397.1,180.2c-1.6,1.3-3.2,2.6-4.8,3.9 c-0.2,0.2-0.5,0.3-0.7,0.5l-0.4,0.3l-0.9,0.7l-0.2,0.1c-0.3,0.2-0.6,0.5-1,0.7c0.3-0.2,0.6-0.5,1-0.7l0.2-0.1l0.9-0.7l0.4-0.3 c0.2-0.2,0.5-0.3,0.7-0.5C393.9,182.8,395.5,181.5,397.1,180.2L397.1,180.2z M359.5,203.8C359.5,203.8,359.5,203.8,359.5,203.8 C359.5,203.8,359.5,203.8,359.5,203.8c-0.3,0.1-0.5,0.2-0.8,0.4c0.2-0.1,0.4-0.2,0.6-0.3C359.4,203.9,359.5,203.8,359.5,203.8z M318.9,212.7C318.9,212.7,318.9,212.7,318.9,212.7C318.9,212.7,319,212.7,318.9,212.7C319,212.7,319,212.7,318.9,212.7 c-0.3-0.2-0.7-0.5-1-0.8c0.1,0.1,0.3,0.2,0.4,0.3C318.6,212.4,318.8,212.6,318.9,212.7z M317.4,211.6c-0.3-0.2-0.6-0.4-0.8-0.6 C316.9,211.2,317.2,211.4,317.4,211.6z M314.5,209.6c-0.4-0.3-0.8-0.5-1.3-0.7C313.7,209.1,314.1,209.3,314.5,209.6z M316,210.5 c-0.3-0.2-0.6-0.4-0.9-0.6C315.4,210.1,315.7,210.3,316,210.5z M310.9,208.1c0.1,0,0.1,0,0.2,0C311,208.2,311,208.1,310.9,208.1 C310.9,208.1,310.9,208.1,310.9,208.1c-0.8,0.1-1.6,0.3-2.4,0.6C309.3,208.5,310.1,208.3,310.9,208.1z M326.8,139.3 c0.3,1.5,0.6,3.2,0.8,5.3c0.1,1.2,0.2,2.4,0.3,3.6c0,0.2,0,0.5,0,0.8c0-0.3,0-0.5,0-0.8c-0.1-1.2-0.2-2.4-0.3-3.6 C327.4,142.5,327.2,140.8,326.8,139.3c-0.3-1.4-0.6-2.7-0.8-4.1c-0.3-1.6-0.7-3.1-1.1-4.7c0.4,1.5,0.8,3.1,1.1,4.7 C326.3,136.6,326.6,137.9,326.8,139.3z M305.4,108.4c0.4-0.1,0.9-0.1,1.3-0.1l0,0v0l0,0c0,0,0,0,0,0 C306.3,108.3,305.9,108.3,305.4,108.4l-0.7,0.1l-0.3,0l0.3,0L305.4,108.4z M293.8,101.4c-0.2-0.6-0.5-1.2-0.7-1.7 c0.2,0.5,0.4,0.9,0.6,1.4C293.7,101.1,293.7,101.2,293.8,101.4z M292.5,98.3c-0.4-0.9-0.8-1.8-1.3-2.6 C291.6,96.6,292.1,97.5,292.5,98.3z M278.9,77.5c3.2,3.5,6,7.4,8.7,11.8C284.9,84.9,282,81.1,278.9,77.5 c-4.1-4.4-8.8-8.5-13.9-12.2C270.1,69.1,274.8,73.2,278.9,77.5z M236.7,51.5c0,0-0.1,0-0.1,0C236.6,51.5,236.7,51.5,236.7,51.5z M230.3,49.9c-1-0.2-2-0.4-3-0.6c-1-0.2-1.9-0.3-2.9-0.5c1,0.1,2,0.3,2.9,0.5C228.3,49.5,229.3,49.7,230.3,49.9z M208.3,47.6 c2.1,0,4.2,0.1,6.4,0.2c0.9,0.1,1.8,0.1,2.8,0.2c-0.9-0.1-1.8-0.2-2.8-0.2C212.5,47.7,210.4,47.6,208.3,47.6 c-8.1,0-16.3,0.8-24.2,2.4c-2.8,0.6-5.7,1.3-8.5,2.1c2.8-0.8,5.7-1.5,8.5-2.1C192,48.4,200.2,47.6,208.3,47.6z M134,72.8 c1.3-1.2,2.6-2.3,4-3.3C136.6,70.5,135.3,71.6,134,72.8c-1.5,1.4-3,2.9-4.4,4.5C131,75.7,132.4,74.2,134,72.8z M105.3,138.5 c0.1-1.1,0.2-2.1,0.2-3.2C105.5,136.4,105.4,137.4,105.3,138.5c-0.3,6.5-0.3,13.4,0.1,20.3c0,0,0,0,0,0 C105,151.9,105,145.1,105.3,138.5z M97.2,152.9L97.2,152.9L97.2,152.9C97.2,152.9,97.2,152.9,97.2,152.9c0.1,1.2,0.1,2.3,0.1,3.5 c0.2,5.7,0.8,11.9,1.6,19.5c0,0.4,0.1,0.7,0.1,1.1c0-0.4-0.1-0.7-0.1-1.1c-0.9-7.6-1.4-13.8-1.6-19.5 C97.2,155.2,97.2,154,97.2,152.9C97.2,152.9,97.2,152.9,97.2,152.9L97.2,152.9c-0.5,0.4-1,0.7-1.5,1.1c-0.8,0.6-1.7,1.3-2.5,2 c0.9-0.7,1.7-1.3,2.5-2C96.1,153.6,96.6,153.2,97.2,152.9z M99.4,179.7c0.1,0.5,0.1,1,0.2,1.4C99.6,180.7,99.5,180.2,99.4,179.7z M100,183.7c0.1,0.5,0.2,1.1,0.3,1.6C100.2,184.8,100.1,184.2,100,183.7z M100.7,187.7c0.1,0.5,0.2,1.1,0.3,1.6 C100.9,188.8,100.8,188.3,100.7,187.7z M90.4,160.8c0-0.3-0.1-0.7-0.1-1.1c0-0.5-0.1-0.9-0.1-1.4c0.8-0.7,1.7-1.4,2.6-2.1 c-0.9,0.7-1.7,1.4-2.6,2.1c0,0.5,0.1,1,0.1,1.4C90.4,160.1,90.4,160.4,90.4,160.8c0.1,1.1,0.2,2.3,0.3,3.4c0.1,1.2,0.3,2.3,0.4,3.5 c-0.1-1.2-0.3-2.3-0.4-3.5C90.6,163.1,90.5,161.9,90.4,160.8z M91.7,171.9c-0.2-1.1-0.3-2.3-0.4-3.4 C91.4,169.6,91.5,170.8,91.7,171.9c0.8,5.8,1.5,10.2,2.3,14.3c0.1,0.6,0.2,1.2,0.4,1.9c-0.1-0.6-0.3-1.3-0.4-1.9 C93.2,182.1,92.5,177.7,91.7,171.9z M94.8,190.7L94.8,190.7C94.8,190.7,94.8,190.7,94.8,190.7C94.8,190.7,94.8,190.7,94.8,190.7z M94.9,190.7c0.1,0.1,0.2,0.1,0.4,0.1C95.2,190.8,95,190.7,94.9,190.7C94.9,190.7,94.9,190.7,94.9,190.7z M101.6,192.7 c-0.1-0.5-0.2-1-0.3-1.5C101.4,191.7,101.5,192.2,101.6,192.7C101.6,192.7,101.6,192.7,101.6,192.7z M114,209.3 C114,209.3,114,209.3,114,209.3C114,209.3,114,209.3,114,209.3C114,209.3,114,209.3,114,209.3c0.1,0.2,0.1,0.4,0.2,0.6 c0-0.1,0-0.1-0.1-0.2C114,209.6,114,209.4,114,209.3z M128.7,238.8c-0.4-0.4-0.8-0.9-1.2-1.3C127.9,238,128.3,238.4,128.7,238.8 c1.8,1.9,3.7,3.7,5.8,5.5C132.4,242.5,130.5,240.7,128.7,238.8z M171.7,286.5c0.5-0.6,1-1.2,1.6-1.9l0.7-0.8 c0.1-0.1,0.2-0.2,0.3-0.3c-0.1,0.1-0.2,0.2-0.3,0.3l-0.7,0.8C172.7,285.2,172.1,285.8,171.7,286.5l-2.7,3.5 c-0.2,0.3-0.4,0.5-0.6,0.8c0.2-0.3,0.4-0.5,0.6-0.8L171.7,286.5z M155.4,308.4c0.5-0.6,1-1.2,1.5-1.8c0.1-0.1,0.2-0.3,0.3-0.4 c-0.1,0.1-0.2,0.3-0.3,0.4C156.4,307.2,155.9,307.8,155.4,308.4l-0.2,0.3c-0.1,0.1-0.2,0.3-0.3,0.4c0.1-0.1,0.2-0.3,0.3-0.4 L155.4,308.4z M149,315.6c1.1-1.1,2.1-2.2,3-3.3c0.3-0.4,0.7-0.8,1-1.1c0.1-0.1,0.2-0.2,0.3-0.4c-0.1,0.1-0.2,0.2-0.3,0.4 c-0.3,0.4-0.7,0.8-1,1.1C151.1,313.5,150.1,314.6,149,315.6c-1.1,1.1-2.1,2.1-3.1,3.1C146.9,317.8,147.9,316.8,149,315.6z M144,320.6c0.3-0.3,0.7-0.7,1-1C144.7,319.9,144.3,320.2,144,320.6c-0.2,0.2-0.5,0.4-0.7,0.6C143.5,321,143.8,320.8,144,320.6z M130.2,337.3c0-0.1-0.1-0.2-0.1-0.2C130.1,337.2,130.2,337.2,130.2,337.3z M132.1,341.2c-0.2-0.6-0.5-1.2-0.7-1.8 C131.6,340,131.9,340.6,132.1,341.2z M133.9,328.7C133.9,328.7,133.9,328.7,133.9,328.7C133.9,328.7,133.9,328.7,133.9,328.7 L133.9,328.7z M134.1,329c0.6,0.8,1.2,1.6,1.8,2.4C135.3,330.6,134.7,329.8,134.1,329l-0.1-0.1L134.1,329z M141.8,347.4 c0,0.2,0.1,0.4,0.1,0.6c0,0.3,0.1,0.6,0.1,0.8c0-0.3,0-0.5-0.1-0.8C141.9,347.8,141.8,347.6,141.8,347.4z M140.6,323.7 c-0.2,0.2-0.5,0.4-0.7,0.6c-0.4,0.4-0.9,0.7-1.3,1.1c0.4-0.4,0.9-0.7,1.3-1.1C140.1,324.1,140.3,323.9,140.6,323.7z M138.1,325.7 c-0.6,0.5-1.2,0.9-1.9,1.4C136.8,326.7,137.5,326.2,138.1,325.7z M113.3,335.1l0.6,0c0.6,0,1.5,0,2.3-0.1c1-0.1,2-0.3,3.2-0.5 c2.3-0.4,4.6-1.1,7-2c0,0,0,0,0,0c0,0,0,0,0,0h0l0,0c0.3,0.2,0.5,0.5,0.7,0.7c0.4,0.4,0.8,0.9,1.3,1.5c-0.4-0.6-0.9-1.1-1.3-1.5 c-0.2-0.2-0.5-0.5-0.7-0.7l0,0h0c-2.4,0.9-4.7,1.6-7,2c-1.2,0.2-2.2,0.4-3.2,0.5c-0.9,0.1-1.7,0.1-2.3,0.1L113.3,335.1 c-0.3,0-0.6,0-0.9,0C112.7,335.1,113,335.1,113.3,335.1z M108.9,333.6c0.1-0.1,0.1-0.1,0.2-0.1C109,333.5,109,333.6,108.9,333.6 L108.9,333.6z M108.9,334.7C108.9,334.7,108.9,334.6,108.9,334.7C108.9,334.6,108.9,334.6,108.9,334.7 C108.9,334.6,108.9,334.6,108.9,334.7l0.4,0L108.9,334.7c0,0.1,0.1,0.3,0.1,0.5c0-0.1-0.1-0.2-0.1-0.3 C108.9,334.8,108.9,334.7,108.9,334.7z M109.2,335.7c-0.1-0.2-0.1-0.3-0.2-0.5C109.1,335.4,109.2,335.6,109.2,335.7z M110.9,338.2 c-0.3-0.4-0.6-0.7-0.8-1.1C110.3,337.5,110.6,337.8,110.9,338.2c1.6,1.7,3.3,3.1,5.1,4.4C114.2,341.3,112.5,339.8,110.9,338.2z M122.5,347.4c-0.4-0.3-0.9-0.6-1.3-1C121.6,346.7,122,347,122.5,347.4l0.3,0.2c0.4,0.3,0.8,0.6,1.2,0.9c-0.4-0.3-0.8-0.6-1.2-0.9 L122.5,347.4z M129.2,351.5c0.8,0.2,1.6,0.2,2.5,0.3c0.8,0,1.5,0,2.3,0c0.1-0.6,0.1-1.2,0-1.8c0-0.5-0.1-1-0.2-1.6 c0.1,0.5,0.1,1,0.2,1.6c0,0.5,0,1.1-0.1,1.8c-0.8,0-1.5,0-2.3,0C130.9,351.7,130,351.6,129.2,351.5z M158.8,349.2l-0.8,0.2 l-7.5,1.2c-1.5,0.2-3.1,0.4-4.7,0.5l-0.4,0c-0.5,0-1,0.1-1.4,0.1c-0.6,0.1-1.2,0.1-1.8,0.2c0,0,0,0-0.1,0c0,0,0,0,0,0 c0-0.5,0-1,0-1.6c0,0.5,0,1.1,0,1.6c0.6,0,1.2-0.1,1.9-0.2c0.5-0.1,1-0.1,1.4-0.1l0.4,0c1.6-0.2,3.2-0.3,4.7-0.5l7.5-1.2 L158.8,349.2c1.1-0.2,2.2-0.5,3.3-0.7C161,348.8,159.9,349,158.8,349.2z M186.4,339.4c2.9-1.5,5.9-3.1,8.9-4.8 C192.2,336.2,189.3,337.8,186.4,339.4z M199,332.5c0.5-0.2,0.9-0.4,1.4-0.5l0,0C200,332.1,199.5,332.3,199,332.5z M223.9,356.9 C223.9,356.9,223.9,356.9,223.9,356.9c0.3,0.4,0.6,0.8,0.9,1.3c-0.2-0.3-0.4-0.6-0.6-0.8C224.1,357.2,224,357.1,223.9,356.9z M231.3,366.5L231.3,366.5l-0.3-0.3l-0.3-0.4l-0.3-0.4c0,0,0,0,0,0l-0.8-1.1c-0.9-1.2-1.8-2.5-2.8-3.7c-0.1-0.1-0.2-0.2-0.2-0.3 l0,0c0.1,0.1,0.1,0.2,0.2,0.3c1,1.2,1.9,2.4,2.8,3.7l1.1,1.5l0.3,0.4L231.3,366.5L231.3,366.5c0.3,0.4,0.7,0.9,1,1.3 c0.1,0.1,0.2,0.2,0.3,0.3c-0.1-0.1-0.2-0.2-0.3-0.3C232,367.4,231.6,366.9,231.3,366.5z M238.1,373.7c-0.5-0.5-1-1-1.5-1.5 C237.1,372.7,237.6,373.2,238.1,373.7c3.9,3.7,8.2,7.1,12.9,10.3C246.3,380.8,242,377.4,238.1,373.7z M265.1,391.8 c3.4,1.6,6.6,2.9,9.8,4C271.8,394.8,268.5,393.4,265.1,391.8z M294.2,399.2c-3.3,0-6.3-0.2-9.2-0.7 C287.9,399,290.9,399.2,294.2,399.2c0.5,0,1,0,1.5,0c3.4-0.1,6.9-0.6,10.4-1.2c-3.5,0.7-7,1.1-10.4,1.2 C295.3,399.2,294.8,399.2,294.2,399.2z M308.4,405.7C308.4,405.7,308.4,405.7,308.4,405.7C308.4,405.7,308.4,405.7,308.4,405.7 l0.9-0.2c3.8-0.8,7.8-1.9,12-3.5c-4.2,1.5-8.2,2.7-12,3.5L308.4,405.7c0.1,0.3,0.3,0.6,0.5,0.8c-0.1-0.2-0.3-0.4-0.4-0.7 C308.4,405.8,308.4,405.7,308.4,405.7z M309.5,407.7c-0.2-0.2-0.3-0.5-0.5-0.7C309.2,407.2,309.4,407.4,309.5,407.7z M312,410.9 c1.1,1.3,2.2,2.7,3.4,3.9C314.2,413.6,313.1,412.2,312,410.9z M316.5,416.2l-0.7-0.8L316.5,416.2c0.7,0.8,1.5,1.7,2.2,2.5 C318,417.8,317.3,417,316.5,416.2z M323,423c0.5,0.4,1,0.9,1.5,1.3c0.1,0.1,0.3,0.2,0.5,0.4c-0.2-0.1-0.3-0.3-0.5-0.4 C324,423.9,323.5,423.4,323,423z M351.3,433c-1,0.1-2,0.1-3,0.1c-1.9,0-3.8-0.1-5.6-0.4c-0.8-0.1-1.6-0.3-2.4-0.5 c0.8,0.2,1.6,0.4,2.4,0.5c1.8,0.3,3.7,0.4,5.6,0.4C349.3,433.1,350.3,433,351.3,433c2-0.2,4-0.7,6-1.2 C355.3,432.3,353.3,432.7,351.3,433z M375,421c1.5-1.4,3-2.9,4.3-4.4c0.4-0.4,0.7-0.9,1.1-1.4c-0.4,0.5-0.7,0.9-1.1,1.4 C378,418.1,376.6,419.6,375,421z M381.7,404.5c0.3,0.1,0.6,0.1,0.9,0.2C382.3,404.6,382,404.6,381.7,404.5z M392.1,397.5h-0.3 c-2.7,0-5.3-0.2-7.9-0.6c2.6,0.4,5.2,0.6,7.9,0.6L392.1,397.5c2.4-0.1,4.6-0.3,6.7-0.7C396.7,397.1,394.4,397.4,392.1,397.5z M404.3,395.4c2-0.7,3.9-1.5,5.7-2.5C408.2,393.9,406.3,394.7,404.3,395.4z M421.7,383.6c-1.9,1.9-3.8,3.6-5.7,5.2 C418,387.3,419.9,385.5,421.7,383.6c2.8-3,5.3-6.4,7.6-10C427.1,377.2,424.5,380.6,421.7,383.6z M459.6,308l-0.1,0.1 c-0.2,0.1-0.3,0.2-0.5,0.3c0.2-0.1,0.3-0.2,0.5-0.3L459.6,308c0.1-0.2,0.1-0.4,0.1-0.5c0-0.2,0-0.4,0-0.5c0,0,0-0.1,0-0.1 c0,0,0,0.1,0,0.1c0,0.2,0,0.4,0,0.5C459.7,307.7,459.7,307.8,459.6,308z" fill="#FFF5E4"/></g><g><g id="change2_1"><path d="M467,303.8c-1.8-4.5-6.5-6.6-10.7-8.4c-0.8-0.4-1.7-0.7-2.6-1c-1.2-0.4-2.3-0.9-3.5-1.2 c-1.2-0.3-2.4-0.7-3.7-1c-1.1-0.3-2.3-0.5-3.4-0.8c-2.1-0.5-4.2-0.9-6.4-1.3c-1.9-0.4-3.9-0.6-5.9-0.9c-2.4-0.3-4.7-0.6-7.1-0.8 c-1-0.1-2-0.2-3.1-0.3c-1.2-0.1-2.4-0.2-3.6-0.2c-1.1,0-2.2,0.1-3.3,0.3c-0.5,0.1-1.1,0.2-1.6,0.4c-0.5,0.2-1,0.5-1.5,0.7 c-0.4,0.3-0.9,0.7-1.3,1.1c-0.5,0.6-0.9,1.2-1.3,1.9c-0.1,0.4-0.3,0.7-0.4,1.1c-0.2,0.5-0.4,1.1-0.6,1.7c-0.1,0.5-0.3,0.9-0.4,1.4 c-0.4,1.5-0.6,3.1-0.8,4.6c-0.4,2.5-0.7,5-1.4,7.4c-0.8,2.3-1.8,4.4-2.9,6.6c-1.4-0.5-2.9-1-4.3-1.5c0.3-0.8,0.6-1.5,0.9-2.3 c1.8-5.1,3.1-10.6,2.4-16.1c-0.3-2.7-1.3-5.3-2.7-7.6c-0.6-1-1.2-1.9-1.8-2.9c-1.3-2-2.8-4-4.3-5.9c-2.8-3.4-5.8-6.7-8.7-10.1 c-2.9-3.3-5.8-6.7-8.6-10.1c-0.4-0.5-0.8-1-1.2-1.5c3.3-2.1,6.4-4.4,9.5-6.7c1.8-1.3,3.5-2.7,5.2-4.1c1.9-1.5,3.6-3.2,5.4-4.8 c3.1-2.8,5.7-6,8.1-9.3c1.2-1.7,2.4-3.4,3.4-5.2c1-1.9,1.7-4.1,2.3-6.1c1.2-3.9,1.9-8,2.5-12c0.3-2.4,0.6-4.7,0.8-7.1 c0.1-2.1,0.3-4.2,0.1-6.3c-0.4-5.4-0.8-10.8-2.3-16c-0.4-1.3-0.8-2.5-1.4-3.7c-0.3-0.7-0.7-1.3-1-1.9c-0.4-0.7-1-1.3-1.5-1.9 c-1-1.1-2.1-1.8-3.5-2.2c-0.4-0.1-1-0.2-1.5-0.2c-0.1,0-0.2,0-0.3,0c-0.5,0.1-1.1,0.2-1.6,0.3c-0.4,0.2-0.9,0.4-1.3,0.6 c-0.9,0.5-1.7,1.2-2.5,2c-0.1,0.1-0.1,0.1-0.2,0.1c-0.2,0.2-0.5,0.4-0.7,0.7c-0.2,0.2-0.5,0.4-0.7,0.7c-0.1,0.1-0.2,0.2-0.3,0.3 c-0.2,0.1-0.3,0.3-0.5,0.4c-0.4,0.3-0.7,0.6-1.1,0.9c0,0,0,0,0,0c-0.3,0.2-0.5,0.4-0.8,0.6c-0.2,0.1-0.3,0.3-0.5,0.4 c-0.1,0.1-0.3,0.2-0.4,0.3c-0.2,0.1-0.4,0.3-0.6,0.4c-0.9,0.6-1.7,1.2-2.5,1.8c-2.5,1.9-5.1,3.7-7.8,5.4c-3.1,2-6.3,3.8-9.5,5.7 c-0.4,0.1-0.8,0.4-1.1,0.6c-1.8,1-3.6,2-5.4,3.1c-1.9,0.9-3.7,1.9-5.6,2.8c-1.9,1-3.9,1.8-5.8,2.7c-3.9,1.8-7.9,3.6-11.9,5.3 c-3.7,1.7-7.5,3.3-11.2,4.8c-0.1,0-0.2,0.1-0.3,0.1c-1.9-1.5-3.8-3-5.8-4.5c-1.4-1-2.8-2-4.3-2.8c-1.1-0.6-2.3-1.1-3.5-1.4 c-0.8-0.2-1.6-0.3-2.3-0.4c-0.2,0-0.3,0-0.5,0c-0.7,0-1.4,0.1-2,0.2c-0.7,0.1-1.4,0.3-2.1,0.5c-0.4,0.1-0.9,0.2-1.3,0.4 c-1.1,0.4-2.2,0.8-3.3,1.2c-0.7,0.3-1.3,0.5-2,0.8c1.6-3.9,2.9-7.8,4.2-11.7c1.8-5.7,3.1-11.5,4.1-17.4c1-0.4,2-0.9,2.9-1.4 c2.4-1.2,4.8-2.5,7.2-3.8c2.1-1.1,4.1-2.5,6.1-3.8c1.9-1.2,3.8-2.5,5.8-3.6c0.5-0.3,0.9-0.8,1.2-1.4c0.3-0.2,0.5-0.5,0.7-0.8 c0.5-0.6,1-1.2,1.4-1.9c0.4-0.7,0.7-1.4,0.9-2.1c0.5-1.3,0.6-2.7,0.8-4.1c0.2-1.5,0.1-3,0-4.5c-0.1-1.9-0.3-3.8-0.6-5.7 c-0.4-3-1.1-6-1.7-9c-1.1-5.2-2.7-10.3-4.9-15.1c-1.1-2.5-2.5-4.9-4-7.2c-1.7-2.5-3.6-4.8-5.8-6.8c-1.5-1.3-3.1-2.6-5-3.1 c-0.4-0.1-0.8-0.1-1.3-0.1c-0.3,0-0.6,0-1,0.1c-2.1,0.1-4.2,0.3-6.3,0.4c-1,0.1-2,0.2-3.1,0.3c-0.4-1.1-0.9-2.2-1.4-3.3 c-2.4-5.6-5.4-11-8.8-16c-6.7-10-15.8-18.3-25.8-24.9c-5.1-3.4-10.5-6.3-16.2-8.7c-5.9-2.5-12-4.4-18.3-5.8 c-6.3-1.4-12.7-2-19.1-2.3c-1.7-0.1-3.3-0.1-5-0.1c-4.6,0-9.3,0.3-13.9,0.8c-6.5,0.7-12.9,2.1-19.3,3.7c-6.1,1.6-12.2,3.6-18.1,5.9 c-5.8,2.3-11.4,5.1-16.6,8.4c-5.2,3.2-9.8,7.1-14.1,11.4c-8.6,8.6-15.5,18.9-20.1,30.2c-4.8,11.6-7.1,24.2-7.9,36.7 c-0.1,2.1-0.2,4.3-0.3,6.4c-2.1,1.4-4.1,2.8-6.1,4.3c-1.7,1.3-3.4,2.6-5,4c-0.6,0.5-1.2,0.9-1.7,1.4c-0.6,0.6-1.1,1.1-1.5,1.9 c-0.8,1.3-0.6,3.1-0.5,4.6c0.3,4.3,0.7,8.7,1.3,13c0.6,3.9,1.2,7.8,1.8,11.7c0.4,2.1,0.7,4.1,1.2,6.2c0.2,1,0.4,2,0.7,2.9 c0.1,0.2,0.1,0.4,0.2,0.6c0.2,0.6,0.5,1.1,0.7,1.7c0.2,0.4,0.8,1,1.2,1.3c0.6,0.5,1.2,0.8,1.9,1.1c1.6,0.7,3.3,1.3,5,1.7 c1,0.3,1.9,0.6,2.9,0.8c1.4,0.3,2.9,0.6,4.3,0.8c1.1,4.3,2.2,8.6,3.5,12.8c0.9,2.9,1.9,5.8,3,8.7c1.1,3,2.3,5.9,3.8,8.7 c2.8,5.5,6.6,10.3,11,14.8c2,2,4.2,3.9,6.4,5.7c2.6,2,5.3,3.9,8.1,5.7c4.5,2.8,9.2,5.4,14,7.6c1.6,0.7,3.1,1.4,4.7,2.2 c0.5,0.2,1.1,0.4,1.7,0.7c0.7,0.3,1.4,0.6,2.1,0.8c1.8,0.6,3.5,1.2,5.3,1.6c1.1,0.3,2.2,0.6,3.4,0.8c0.3,0.1,0.6,0.3,0.8,0.3 c1.1,0.1,2.3,0.3,3.4,0.5c-0.9,0.8-1.8,1.6-2.6,2.4c-0.9,0.9-1.8,1.8-2.8,2.7c-0.7,0.7-1.4,1.6-2.1,2.3c-2.7,3.1-5.2,6.5-7.6,9.9 c-2.6,3.8-5.3,7.5-8.1,11.1c-1.4,1.8-2.8,3.5-4.3,5.3c-0.5,0.6-1.1,1.3-1.7,1.9c-0.7,0.8-1.4,1.6-2.1,2.3c-1.2,1.2-2.4,2.4-3.5,3.6 c-1.1,1.1-2.3,2.2-3.5,3.3c-3.2,2.8-6.6,5.2-10.4,7.2c-1.8,0.9-3.6,1.6-5.5,2.1c-0.6,0.2-1.3,0.3-2,0.5c-0.9,0.2-1.9,0.3-2.8,0.4 c-0.9,0.1-1.9,0.1-2.9,0.1c-0.7-0.1-1.3-0.2-2-0.3c-1.3-0.2-2.5-0.3-3.8-0.4c-0.2,0-0.4,0.1-0.6,0.1c-0.7,0.1-1.4,0.3-2,0.7 c-0.2,0.1-0.4,0.2-0.6,0.3c-0.4,0.3-0.7,0.6-1,0.9c-0.9,0.9-1.4,2.3-1.7,3.5c-0.2,0.6-0.2,1.6-0.2,2.2c0,0.6,0.1,1.1,0.2,1.7 c0.1,0.8,0.3,1.5,0.6,2.2c0.3,1,0.9,1.9,1.4,2.8c0.7,1.2,1.7,2.2,2.6,3.2c0.5,0.6,1.1,1.2,1.8,1.7c0.9,0.8,1.8,1.6,2.7,2.3 c1.6,1.3,3.4,2.5,5,3.7c1.7,1.2,3.3,2.4,5,3.7c2.4,1.7,4.9,3.5,7.9,3.9c2.4,0.3,4.9,0.4,7.4,0.4c2.2,0,4.4-0.2,6.6-0.3 c2.3-0.1,4.6-0.5,6.9-0.7c2-0.2,4-0.6,5.9-0.9c1.2-0.2,2.4-0.4,3.6-0.6c1.1-0.2,2.2-0.4,3.3-0.7c1.3-0.3,2.5-0.5,3.8-0.8 c1-0.2,2.1-0.5,3.1-0.8c4-1.1,7.9-2.4,11.7-4.1c2.1-0.9,4.3-1.9,6.4-2.9c2-0.9,3.9-2,5.8-3c3.6-1.9,7.2-3.9,10.8-5.8 c0.2-0.1,0.3-0.2,0.5-0.4c0.2,0.4,0.4,0.8,0.6,1.2c5.8,11.1,12.7,21.7,20.8,31.3c4.1,4.8,8.6,9.3,13.5,13.3 c4.9,4,10.3,7.5,15.8,10.6c5.5,3,11.2,5.7,17.1,7.8c2.9,1,5.9,1.9,8.9,2.6c3.2,0.8,6.5,1.2,9.8,1.3c3.3,0.2,6.6,0.1,9.9-0.2 c1,2.1,2.2,4.2,3.5,6.1c1.3,1.8,2.8,3.6,4.3,5.3c1.6,1.8,3.2,3.6,4.8,5.5c1.8,2.1,3.8,4.1,5.9,5.9c2.4,2,4.8,3.9,7.5,5.5 c2.6,1.5,5.5,2.7,8.4,3.7c3.1,1.1,6.4,1.7,9.7,2.1c3.1,0.4,6.2,0.2,9.3-0.2c3.3-0.4,6.5-1.4,9.7-2.6c2.8-1.1,5.4-2.5,8-4.1 c2.8-1.7,5.4-3.7,7.9-5.8c4.1-3.5,7.6-7.6,10.5-12.2c1.2-2,2.4-4,3.6-6c0.9-1.6,1.7-3.2,2.4-4.8c0.3,0,0.7,0,1-0.1 c2.9-0.2,5.7-0.8,8.5-1.6c3.1-0.9,6.2-2.1,9-3.7c5.4-3,10.1-7.1,14.3-11.6c4.2-4.5,7.5-9.6,10.4-15c2.9-5.4,4.9-11.4,6.5-17.3 c2-7.4,3.3-15.1,4.4-22.7c0.4-2.9,0.9-5.9,1.4-8.8c0.3-1.8,0.5-3.6,0.8-5.4c2.6-0.4,5.2-1.2,7.6-2c2.7-0.9,5.5-2.4,7-4.9 C468,309.6,468.1,306.5,467,303.8z M381.3,278.2c1.4,1.7,2.9,3.3,4.3,5c1.1,1.3,2.1,2.6,3,3.9l0.4,0.6c1.2,1.8,2.5,3.8,3.4,5.8 c0.3,1,0.5,1.9,0.7,3c0.1,1.6,0,3.4-0.3,5.4c-0.3,1.8-0.8,3.6-1.4,5.4c-0.4,1.2-0.8,2.3-1.3,3.5c0,0,0,0-0.1,0c0,0,0,0,0,0 c0,0,0,0,0,0l-0.6-0.3c-0.6-0.2-1.3-0.5-1.9-0.8c-0.6-0.3-1.3-0.6-2-1c-1.5-0.7-3.1-1.4-4.5-2.3c-1.1-0.6-2.1-1.2-3.2-1.8l-1.1-0.6 l-0.6-0.3c-0.5-0.3-1-0.6-1.5-0.9l-3.3-2.2l-3.3-2.2c-4.7-3.4-9-7-12.9-10.8l-1.8-1.8l-0.7-0.6c-0.9-0.8-1.7-1.7-2.6-2.5l-2.6-2.6 l-2.6-2.6l-0.3-0.3l-0.3-0.3c-0.5-0.4-1-0.8-1.5-1.2c0,0-0.1-0.1-0.1-0.1c0,0,0,0,0,0c0,0,0,0,0,0c2.8-1.5,5.8-3.2,9.1-5.2 c0.4-0.2,0.7-0.5,1-0.9c0,0,0,0,0,0c0,0,0,0,0,0c0,0,0,0,0,0c0,0,0,0,0,0c2.7-1.5,5.5-3.1,8.2-4.7c2-1.2,4-2.3,6.1-3.5l0,0 c0,0,0,0,0,0h0l0,0l1.6,2c1.3,1.6,3,3.6,4.6,5.5C375.8,271.9,378.5,275.1,381.3,278.2z M377.3,194.1c1.3-0.8,2.6-1.5,3.9-2.4 c2.2-1.4,3.9-2.5,5.5-3.6c1.1-0.8,2.2-1.6,3.3-2.4l0.2-0.1l0.9-0.7l0.4-0.3c0.2-0.2,0.5-0.3,0.7-0.5c1.6-1.3,3.2-2.6,4.7-3.8 l0.1-0.1l0.1-0.1l0.1-0.1l0.1-0.1l0.1-0.1l0.1-0.1l0.1-0.1c0.2-0.2,0.5-0.4,0.7-0.6l0.3-0.2l0.1-0.1l0.2-0.1l0.1-0.1l0.1-0.1 c0,0,0.1-0.1,0.1-0.1c0.1-0.1,0.1-0.2,0.2-0.2c0,0,0,0,0,0l0,0c0.1,0.2,0.2,0.4,0.4,0.6c0.7,1.6,1.3,3.4,1.8,5.6 c0.5,2.9,0.8,5.8,1.1,8.8l0,0.5c0.1,1.4,0.2,2.9,0.2,4.5c0,1.2-0.1,2.4-0.1,3.5c-0.4,3.6-0.8,6.4-1.3,9.2c-0.3,1.7-0.6,3.3-1,5 c-0.3,1.3-0.7,2.5-1.1,3.9l-0.2,0.5c-0.7,1.9-1.5,3.5-2.5,5.1c-2.1,3.1-4.2,5.7-6.5,8.1c-1.8,1.9-3.7,3.6-5.6,5.3l-0.4,0.4 l-0.4,0.3c-0.9,0.7-1.8,1.5-2.8,2.2l-0.3-0.3l-0.3-0.4l-0.7-0.8c-0.8-1-1.7-1.9-2.5-2.9c-1.4-1.7-2.6-3.5-3.7-5.1l-0.2-0.3 c-2.2-3.5-3.9-6.9-5.1-10.3c-0.9-2.7-1.4-5.3-1.7-8.1c-0.1-2.4,0-4.7,0.3-6.9c0.4-1.8,0.9-3.4,1.6-4.9c0.5-1,1.1-1.9,1.8-2.8 c0.7-0.7,1.4-1.4,1.9-1.9c0,0,0,0,0,0c0,0,0,0,0.1-0.1c0,0,0,0,0.1,0c0,0,0,0,0,0c1.3-0.8,2.6-1.5,3.9-2.3L377.3,194.1z M300.8,211.7l0.7-0.3c1.5-0.6,3-1.3,4.5-1.9c1.8-0.6,3.3-1.2,4.9-1.4c0.1,0,0.2,0,0.4,0c0.6,0.1,1.1,0.3,1.7,0.6 c2,1,3.8,2.3,5.4,3.6c0.2,0.1,0.4,0.3,0.6,0.4c0,0,0,0,0,0c0,0,0,0,0,0c-1.6,0.6-3.2,1.3-4.8,1.9c-5.2,2.1-10.5,4.3-15.6,6.4 l-1.5,0.6l-3,1.3l-2.6,1.1c-0.8,0.3-1.5,0.6-2.3,1c0,0,0,0,0,0l0,0c2.2-3.4,4.4-7.1,6.4-11.1c0,0,0,0,0,0c0,0,0,0,0,0c0,0,0,0,0,0 c0,0,0,0,0,0C297.4,213.1,299.1,212.4,300.8,211.7z M327.2,153.9c0,0-0.1,0.1-0.1,0.1c0,0,0,0,0,0 C327.1,154,327.1,153.9,327.2,153.9z M326.7,154.1c-0.1,0-0.2,0-0.3,0C326.5,154.1,326.6,154.1,326.7,154.1 C326.7,154.1,326.7,154.1,326.7,154.1z M322.8,123.9c1.3,3.6,2.4,7.4,3.2,11.3c0.3,1.4,0.6,2.7,0.8,4.1c0.3,1.5,0.6,3.2,0.8,5.3 c0.1,1.2,0.2,2.4,0.3,3.6c0,1,0,2.1-0.2,3.5c-0.1,0.6-0.3,1.2-0.5,1.6c-0.1,0.2-0.2,0.4-0.4,0.6c0,0-0.1,0-0.1,0s0,0-0.1-0.1 c-1.4-1.3-2.7-2.8-4-4.5c-2.2-3.3-4.1-7-5.8-11.4c-1.6-4.5-2.7-9.2-3.2-13.7c-0.3-4-0.2-7.9,0.3-11.5c0.2-0.8,0.4-1.7,0.7-2.5l0,0 c0,0,0,0,0,0s0,0,0,0c1,1,1.9,2.2,2.9,3.5C319.6,116.6,321.4,120.1,322.8,123.9z M304.8,108.5l0.7-0.1c0.4-0.1,0.9-0.1,1.3-0.1l0,0 v0l0,0c-0.3,1.2-0.5,2.4-0.7,3.4c-0.5,3-0.6,6.1-0.5,9.6c0.2,5.9,1.4,12.1,3.6,18.3c2.2,6.3,5,11.6,8.6,16.2 c0.6,0.8,1.4,1.7,2.3,2.6c0.1,0.1,0.1,0.1,0.2,0.2c0,0,0,0,0,0c0,0,0,0,0,0c-0.7,0.4-1.3,0.9-2,1.3c-2.5,1.6-5,3-7.4,4.3l-0.4,0.2 c-1,0.5-2,1-2.9,1.4c-1,0.5-2.1,0.9-3.2,1.4c-1.1-1.1-2.1-2.2-2.9-3.4l-1.9-2.5l-1.1-1.7l-1.1-1.7c-0.5-0.7-0.9-1.5-1.3-2.2 l-0.1-0.1c-0.2-0.3-0.3-0.6-0.5-0.9c-1.1-2-2.1-4.1-3-6.1l-0.4-0.9l-0.6-1.6l-1-2.6c-0.4-1.1-0.8-2.2-1.1-3.3 c-0.1-0.4-0.3-0.9-0.4-1.3c-0.5-1.5-0.8-2.9-1.2-4.3c-0.6-2.5-1.3-5.5-1.7-8.6c-0.3-3-0.3-5.6-0.1-8.1c0.1-1.3,0.2-2.5,0.3-3.3 c0.3-1.4,0.5-2.5,0.8-3.5l0.1-0.1l0.2-0.4l0,0l0,0l0,0l0,0l1.7-0.2l0.2,0c0.9-0.1,1.8-0.2,2.6-0.4c2.2-0.3,4.5-0.6,6.8-0.8 c1.8-0.2,3.5-0.4,5.3-0.6L304.8,108.5z M141.5,98.1c1.2-1.1,2.5-2.1,3.8-3.2c3-2.3,6.2-4.3,9.4-6.1c2.1-1.2,4.4-2.3,6.6-3.3 c0.9-0.4,1.7-0.7,2.6-1c5.2-1.9,10.5-3.3,16-4c3.2-0.4,6.4-0.6,9.5-0.6c2.6,0,5.3,0.1,7.9,0.4c4.6,0.9,9.3,2.3,13.9,4.1 c5.8,2.5,11.4,5.8,16.6,9.8c5.8,4.5,11.1,9.9,15.9,15.9c5.2,6.8,9.6,14.4,13.1,22.6l0.1,0.2l0.1,0.2l0.1,0.1 c0.6,1.4,1.2,2.9,1.7,4.5l0.1,0.3l0,0.1l0,0.1l0.1,0.2l0.1,0.2c0.2,0.5,0.3,1,0.5,1.5c0.4,1.3,0.9,2.8,1.4,4.4 c1,3.5,1.9,7.2,2.6,10.9l0.1,0.7l0.1,0.7l0,0.1l0.1,0.5l0.1,0.5c0,0.3,0.1,0.6,0.1,0.8l0,0.2l0,0.3l0.2,1.2 c0.5,4.3,0.9,8.6,0.9,12.9v0.2c0,0.3,0,0.6,0,0.9c0,0.2,0,0.4,0,0.6c0,0.2,0,0.4,0,0.5v0.3c0,1.3-0.1,2.6-0.1,3.9 c0,0.1,0,0.1,0,0.2c0,0,0,0,0,0c0,0.1,0,0.1,0,0.2c-0.1,1.1-0.2,2.3-0.3,3.4c-0.9,6.3-2.6,12.6-5,18.5c-2.5,5.7-5.6,11.1-9.4,16.1 c-3.8,4.8-8.2,9.2-13,13c-4.6,3.5-9.6,6.5-14.8,8.8l-0.1,0.1l-0.1,0.1l-0.1,0.1c-0.1,0-0.2,0.1-0.3,0.1l-0.2,0.1 c-0.1,0.1-0.3,0.1-0.4,0.2l-0.1,0.1l-0.1,0c-2.4,1-4.8,1.8-7.3,2.5c-0.4,0.1-0.9,0.3-1.3,0.4c0,0,0,0,0,0c-0.1,0-0.3,0.1-0.4,0.1 c-0.6,0.2-1.1,0.3-1.7,0.5c-1.6,0.3-3.2,0.7-5.2,1c-0.7,0.1-1.4,0.2-2,0.2l-0.2,0c-0.4,0-0.8,0.1-1.1,0.1c-0.8,0.1-1.5,0.1-2.3,0.2 c-0.4,0-0.8,0-1.2,0.1c-1.5,0.1-3,0.2-4.5,0.2l-1.6,0.1c-0.4,0-0.8,0-1.2,0l-0.4,0h-0.4c-0.3,0-0.7,0-1,0l-0.9,0l-1.2,0 c-0.5,0-1,0-1.5,0c-7.6-0.4-15.2-1.7-22.5-4c-3.5-1.2-6.6-2.4-9.4-3.6c-2.9-1.3-5.8-2.9-8.8-4.7c-4.2-2.7-8.1-6.1-11.7-9.9 c-4-4.4-7.6-9.6-10.9-15.8c-1.4-2.7-2.6-5.4-3.7-8.1c-1.1-2.8-2-5.8-2.9-9.5c-0.5-2.5-1-4.8-1.3-7.1c-0.3-2.4-0.5-4.8-0.8-7.6 c-0.4-6.1-0.6-11.1-0.4-15.8c0.4-8.4,1.8-16.5,4.1-23.9c2.2-6.5,5.3-13.1,9.2-19.4C131.1,109.6,136.1,103.4,141.5,98.1z M94.8,190.7L94.8,190.7C94.8,190.7,94.8,190.7,94.8,190.7C94.8,190.7,94.8,190.7,94.8,190.7z M101.6,192.7 c-1.9-0.4-3.7-0.9-5.4-1.5c-0.4-0.2-0.8-0.3-1.3-0.5c-0.4-1.5-0.7-3-1-4.5c-0.8-4.1-1.5-8.5-2.3-14.3c-0.4-2.5-0.6-5.1-0.9-7.7 c-0.1-1.1-0.2-2.3-0.3-3.4c0-0.3-0.1-0.7-0.1-1.1c0-0.5-0.1-0.9-0.1-1.4c1.8-1.5,3.6-2.9,5.4-4.3c0.5-0.4,1-0.7,1.5-1.1h0h0 c0,0,0,0,0,0c0,1.2,0.1,2.3,0.1,3.5c0.2,5.7,0.8,11.9,1.6,19.5c0.6,4.8,1.3,9.8,2.3,14.8C101.3,191.3,101.5,192,101.6,192.7 C101.6,192.7,101.6,192.7,101.6,192.7C101.6,192.7,101.6,192.7,101.6,192.7z M108.9,333.6c0.1-0.1,0.1-0.1,0.2-0.1 C109,333.5,109,333.6,108.9,333.6L108.9,333.6z M128.5,351.3c-0.7-0.3-1.4-0.6-2.1-1.1c-1.2-0.8-2.4-1.8-3.6-2.6l-0.3-0.2 c-1.1-0.8-2.1-1.6-3.2-2.3c-2.7-1.9-5.8-4.1-8.4-6.9c-0.6-0.8-1.2-1.5-1.6-2.3c-0.2-0.4-0.3-0.7-0.4-1c0,0,0-0.1,0-0.1c0,0,0,0,0,0 c0,0,0,0,0,0c0,0,0,0,0,0l0.5,0.1c1.3,0.2,2.6,0.4,4,0.4l0.6,0c0.6,0,1.5,0,2.3-0.1c1-0.1,2-0.3,3.2-0.5c2.3-0.4,4.6-1.1,7-2 c0,0,0,0,0,0c0,0,0,0,0,0h0l0,0c0.3,0.2,0.5,0.5,0.7,0.7c0.7,0.7,1.4,1.5,2.2,2.7c0.6,0.9,1,1.7,1.5,2.6c0.6,1.2,1.1,2.4,1.5,3.5 c1,3.1,1.6,5.7,1.8,8c0,0.5,0,1.1-0.1,1.8c-0.8,0-1.5,0-2.3,0C130.6,351.7,129.5,351.6,128.5,351.3z M206.6,326.5 c-0.7-1.4-1.2-2.9-1.8-4.4l-0.3-0.7l-0.3-0.7c-0.4-1-0.8-2-1.2-3.1c-0.2-0.5-0.3-0.9-0.5-1.4c0,0,0,0,0,0c-0.1-0.2-0.2-0.4-0.3-0.7 c-0.1-0.1-0.1-0.3-0.2-0.4l0-0.1c0,0,0,0,0,0c0,0,0,0,0,0l0,0c1.9-0.3,3.6-0.7,5.2-1.1l3.3-0.8c0.9-0.2,1.8-0.5,2.6-0.8 c0.3-0.1,0.7-0.2,1-0.3l1.5-0.5l0.3-0.1c1.2-0.4,2.6-0.9,3.9-1.3l3.8-1.4l3.8-1.4c1.4-0.5,2.7-1.1,4.1-1.7l0.7-0.3l1.1-0.5 c1.5-0.6,3.2-1.3,4.8-2c2.3-1,4.6-2,6.9-3.1c0.4-0.2,0.9-0.4,1.3-0.6l0.7-0.3l2.1-1.1l2.1-1.1c1.9-1,3.9-2.1,5.7-3.2l0.1-0.1 l1.5-0.9c1.8-1,3.5-2.1,5-3l1.5-0.9c2.5-1.5,5-3,7.6-4.4c0.9-0.5,2-1.1,3.2-1.7l0.8-0.4c1-0.5,2.3-1.2,3.6-1.6l0.2,0l0,0 c0.3,0.2,0.5,0.4,0.8,0.6c1,1,1.9,2.2,2.8,3.7c1.6,2.8,3,5.7,4.4,8.5l0.6,1.2c0.7,1.5,1.4,3,2.1,4.5l0.6,1.3 c0.7,1.6,1.4,3.2,2.2,4.8l0.5,1.2c0.3,0.6,0.5,1.1,0.8,1.7l0.1,0.3l0.1,0.3c0.2,0.5,0.4,1,0.6,1.4l0.1,0.1l0.1,0.1l0.1,0.3l0.1,0.2 c0.1,0.2,0.1,0.3,0.2,0.5l0.1,0.2l0.1,0.2c0.1,0.3,0.2,0.5,0.3,0.7l0.1,0.1c-0.1,0.1-0.1,0.1-0.2,0.2c-1.3,1.2-2.7,2.3-4.3,3.5 c-2.7,2.1-5.4,4.1-8.2,5.9l-3,2l-3,1.9c-0.9,0.6-1.9,1.2-2.8,1.7l-0.9,0.6c-2,1.2-3.9,2.3-5.9,3.5c-0.9,0.5-1.9,1-2.8,1.5l-0.6,0.3 l-0.6,0.3l-1.6,0.9l-4.7,2.5c-3.3,1.8-7,3.5-11.2,5.3l-0.1,0.1l-0.1,0.1l-0.2,0.1l-0.2,0.1l-0.1,0l0,0l0.1-0.1c0,0-0.1,0-0.1,0 l0.1,0c-4.2,1.7-8,3.1-11.6,4.1c-2,0.6-4.2,1.1-6.6,1.6c-2,0.4-4,0.7-6,0.9l-0.4,0.1c-0.4,0-0.8,0.1-1.2,0.1l-0.2,0 c-0.4,0-0.7,0.1-1.1,0.1c-0.2,0.1-0.4,0.1-0.6,0.2c0,0,0,0,0,0c0,0,0,0,0,0c0,0,0,0,0,0l0,0c-0.8-1.2-1.5-2.4-2.3-3.7 c-2.6-4.3-4.5-7.9-6.2-11.3L206.6,326.5z M384.8,408.4c-1.9,3.4-3.7,6-5.5,8.2c-2.8,3.2-6.1,6.2-9.8,8.9c-1.6,1.1-3.1,2.1-4.7,2.9 c-1.7,0.9-3.5,1.8-5.7,2.7c-2.6,0.9-5.2,1.5-7.8,1.8c-1,0.1-2,0.1-3,0.1c-1.9,0-3.8-0.1-5.6-0.4c-3.4-0.6-6.6-1.6-9.7-2.9 c-1.6-0.8-3.1-1.6-4.5-2.5c-1.5-1-2.9-2.1-4-2.9c-3-2.5-5.6-5.4-8-8.1l-0.9-1c-2-2.3-4.1-4.6-5.9-7.1c-0.5-0.7-0.9-1.4-1.3-2.2 c0-0.1-0.1-0.1-0.1-0.2c0,0,0,0,0,0c0,0,0,0,0,0l0.9-0.2c5.6-1.2,11.5-3.1,18.1-5.9c1.7-0.7,3.3-1.5,4.9-2.3c0.7-0.3,1.3-0.7,2-1 c1.2-0.6,2.4-1.2,3.7-1.9c0.5-0.3,1.1-0.6,1.6-0.9c2.2-1.2,4.3-2.5,6.1-3.7c1-0.6,2-1.3,2.9-2c0,0,0,0,0,0l0,0 c2,1.1,3.9,2.3,5.7,3.5l1.8,1.2c1.4,0.9,2.8,1.9,4.2,2.8c2.4,1.5,5,3.2,7.8,4.6c2.9,1.4,6,2.6,9.2,3.6c2.6,0.8,5.4,1.3,8.1,1.6 c0.3,0,0.7,0.1,1,0.1c0,0,0,0,0,0c0,0,0,0,0,0C386,406.3,385.4,407.3,384.8,408.4z M438,352c-1.9,7.5-4.3,13.8-7.3,19.2 c-2.6,4.5-5.6,8.7-9,12.3c-3.3,3.4-6.7,6.2-10.2,8.5c-2.6,1.5-5.4,2.8-8.5,3.7c-3.4,0.9-7,1.5-11,1.6h-0.3c-3.6,0-7.2-0.4-10.7-1.2 c-3.9-1-7.7-2.5-11.6-4.6c-2.7-1.5-5.3-3.3-7.8-5l-0.1-0.1l-2-1.4c-2.3-1.6-4.8-3-7-4.3c-0.2-0.1-0.4-0.2-0.6-0.3c0,0,0,0,0,0 c0,0,0,0,0,0c0-0.1-0.1-0.1-0.1-0.2c-0.8-0.9-1.9-1.5-3.1-1.5c-0.9,0-1.8,0.3-2.5,0.8c-2.1,1.6-4.3,3.1-6.8,4.7l-0.4,0.3 c-1,0.6-2,1.2-3,1.7c-0.5,0.3-1,0.5-1.6,0.8c-1,0.6-2.1,1.2-3.2,1.7c-2,1-4,1.9-6.1,2.9c-3.3,1.6-7,3-11.7,4.4 c-6,1.7-11.9,2.7-17.7,3c-0.5,0-1,0-1.5,0c-4.6,0-8.7-0.4-12.5-1.3c-7.5-1.9-15.2-5.1-23.7-9.7c-7.5-4.2-14.2-9.1-20-14.6 c-1.5-1.4-2.9-3-4.4-4.6c-0.5-0.4-1-0.8-1.4-1.3c-0.3-0.4-0.7-0.9-1-1.3l-0.1-0.1l-0.2-0.3l-0.3-0.4l-0.3-0.4c0,0,0,0,0,0l-0.8-1.1 c-0.9-1.2-1.8-2.5-2.8-3.7c-0.1-0.1-0.2-0.2-0.2-0.3l-0.2,0.1c0,0,0,0,0,0l0,0l0,0c-0.8-1.1-1.5-2.1-2.2-3 c-0.1-0.1-0.2-0.3-0.3-0.4c0,0,0,0,0,0c0,0,0,0,0,0c2.3-0.3,4.2-0.6,6-0.9c2.8-0.5,5.8-1.2,9.5-2.3c6.8-2.1,13.2-5,18-7.3 c4.3-2,8.7-4.4,12.3-6.4l2.8-1.5c1.2-0.6,2.4-1.4,3.5-2.1l0.1-0.1l0.1-0.1l0.5-0.3c0.4-0.3,0.9-0.5,1.3-0.8l1.1-0.7 c1.1-0.6,2.3-1.4,3.5-2.1l2.1-1.4l0.3-0.2c2.9-1.9,6-3.9,8.9-6.1l0.6-0.5c2.7-2,5.4-4.1,7.9-6.3c0.1-0.1,0.2-0.2,0.2-0.2 c0.1-0.1,0.2-0.2,0.3-0.3l0.1-0.1c0.1-0.1,0.2-0.2,0.2-0.2c0.3-0.3,0.6-0.7,0.8-1.1l0.1-0.2c0.1-0.1,0.1-0.2,0.1-0.2 c0-0.1,0.1-0.2,0.1-0.3c0.1-0.1,0.1-0.2,0.1-0.3c0.1-0.3,0.2-0.5,0.2-0.7c0-0.2,0.1-0.4,0.1-0.6l0-0.2c0-0.4,0.1-0.7,0-1.1 c0,0,0-0.1,0-0.1c0-0.1,0-0.2,0-0.4c0-0.2,0-0.3-0.1-0.5l-0.1-0.3c-0.1-0.4-0.2-0.8-0.4-1.3c0-0.3-0.1-0.5-0.2-0.8 c-0.5-1.4-1.2-2.8-1.8-4.2c-0.3-0.6-0.5-1.2-0.8-1.7c-0.9-2-1.8-3.9-2.7-5.9c-2.1-4.7-4.1-8.9-6.2-13.1c-1.6-3.1-3.2-5.6-4.8-7.6 c-0.9-1.1-2-2.1-3.1-2.8c-1.3-0.9-2.8-1.4-4.5-1.4c-0.1,0-0.3,0-0.4,0c-1.7,0.1-3.3,0.8-4.9,1.6l-0.3,0.1c-0.9,0.4-1.8,0.8-2.6,1.3 c-4,2.1-7.9,4.4-11.1,6.3l-1.5,0.9l-0.2,0.1c-1.2,0.7-2.5,1.5-3.8,2.3l-1.9,1.1l-1.9,1.1c-0.2,0.1-0.5,0.3-0.8,0.5 c-0.5,0.3-0.9,0.6-1.5,0.8c-2.3,1.1-4.6,2.3-6.9,3.4c-1.3,0.6-2.6,1.2-3.9,1.8l-1.3,0.6c-4.2,1.9-8.7,3.7-12.4,5.2l-0.2,0.1 l-0.2,0.1c-1.2,0.5-2.4,1-3.6,1.4l-0.1,0l-0.1,0c-0.6,0.2-1.2,0.4-1.8,0.7c-1.7,0.6-3.5,1.3-5.3,1.9l-2,0.7l-3,1 c-1.5,0.4-3.1,0.8-4.6,1.2c-1.2,0.3-2.4,0.5-3.9,0.7c-0.1,0-0.1,0-0.2,0c0,0,0,0,0,0c0,0,0,0,0,0c-0.1-0.6-0.2-1.2-0.2-1.9 c-0.2-2-2.2-3.3-4-3.3c-0.2,0-0.4,0-0.6,0c-1,0.2-1.9,0.7-2.6,1.6c-0.6,0.8-0.8,1.8-0.7,3c0.4,4.2,1.5,8.7,3.4,13.7l3,7.7 c0.1,0.3,0.3,0.6,0.4,0.9l0.1,0.3l1,2l0.3,0.6c0,0.1,0.1,0.1,0.1,0.2c0,0,0,0,0,0l0,0c-0.5,0.1-1,0.3-1.7,0.6 c-4.9,2.7-9.8,5.3-14.3,7.7c-2.2,1.1-4.3,2-6.4,2.9c-2.3,1-4.2,1.8-6.2,2.4l-1.9,0.6l-1.9,0.6c-0.9,0.3-1.8,0.5-2.7,0.7 c-0.5,0.1-0.9,0.2-1.4,0.3c-1.7,0.5-3.5,0.8-5.3,1.2l-0.8,0.2l-7.5,1.2c-1.5,0.2-3.1,0.4-4.7,0.5l-0.4,0c-0.5,0-1,0.1-1.4,0.1 c-0.6,0.1-1.2,0.1-1.8,0.2c0,0,0,0-0.1,0c0,0,0,0,0,0c0-1.1-0.1-2.2-0.2-3.5c-0.1-1.3-0.4-2.7-0.8-4l-0.2-0.9 c-0.4-1.8-1-3.5-1.7-5.4c-0.5-1.4-1.2-2.8-2.2-4.5c-0.8-1.4-1.8-2.8-3-4.2l-0.2-0.3c0,0,0,0,0,0c0,0,0,0,0,0l0,0 c2.1-1.3,4.1-2.8,6-4.4c1.4-1.2,2.7-2.4,4.1-3.7c1.6-1.5,3.2-3.1,5-4.9c1.1-1.1,2.1-2.2,3-3.3c0.3-0.4,0.7-0.8,1-1.1 c0.5-0.5,0.9-1.1,1.4-1.6l0.1-0.1c0.2-0.3,0.5-0.6,0.7-0.9l0.2-0.3c0.5-0.6,1-1.2,1.5-1.8c1.5-1.9,2.9-3.8,4.3-5.7 c0.8-1.2,1.7-2.3,2.5-3.5l0.1-0.2c1.8-2.6,3.5-5,5.2-7.2l2.7-3.5c0.5-0.6,1-1.2,1.6-1.9l0.7-0.8c1.5-1.7,3.2-3.4,5.2-5.3 c2.1-1.8,4.2-3.2,6.4-4.4c0.8-0.4,1.6-0.7,2.4-1.1c0,0,0,0,0,0c0.2,0,0.4,0,0.6-0.1c1.1-0.1,2.2-0.3,3.3-0.5l0.4-0.1 c0.6-0.1,1.2-0.2,1.7-0.4c2.1-0.7,3.4-2.8,2.8-4.9c-0.5-1.7-2.1-2.9-3.8-2.9c-0.4,0-0.7,0.1-1.1,0.2c-0.8,0.2-1.6,0.4-2.6,0.5 l-0.5,0.1l-0.4,0c0,0,0,0,0,0l0,0l0,0c0,0,0,0-0.1,0c0,0,0,0,0,0c-0.3-0.1-0.5-0.1-0.8-0.1c-0.4,0-0.8,0.1-1.2,0.2c0,0,0,0,0,0 c0,0,0,0-0.1,0l0,0h0c0,0,0,0,0,0l-0.5,0c-0.2,0-0.5,0-0.7,0l-0.3,0l-0.4,0c-1.5,0-3-0.2-4.3-0.4l-0.2,0c-0.6-0.1-1.1-0.2-1.7-0.3 l-0.2,0c-1.4-0.2-2.8-0.5-4.2-0.7c0,0,0,0,0,0c0,0,0,0,0,0c0,0,0,0,0,0c0,0,0,0,0,0c0,0,0,0-0.1,0c0,0,0,0,0,0 c-0.3-0.1-0.6-0.2-0.8-0.3c-2-0.4-4.1-0.9-5.7-1.4c-0.8-0.3-1.9-0.7-3.1-1.1c-1.6-0.6-2.9-1.2-4.2-1.8c-2.1-1-3.9-1.8-5.6-2.6 c-3.9-1.9-7.8-4.1-11.5-6.4c-5.3-3.5-10-7.3-13.8-11.3c-3.2-3.6-5.8-7.1-7.7-10.7c-1.4-2.7-2.5-5.5-3.2-7.4 c-1.3-3.4-2.4-6.4-3.3-9.3c-0.2-0.6-0.3-1.1-0.5-1.7c0-0.1-0.1-0.3-0.1-0.4c0,0,0,0,0,0.1c0,0,0-0.1,0-0.1c1.5,2.9,3.2,6,5.3,9.4 c3.2,5.1,7,9.7,11.4,13.9c4.1,3.9,8.8,7.4,14.6,10.5c5,2.7,10.6,5.1,17.3,7.1c6.1,1.8,12.4,3.1,18.9,3.6c2.9,0.2,5.7,0.3,8.3,0.3 c0.8,0,1.6,0,2.4,0c1.6,0,3.2-0.1,4.6-0.2l1.5-0.1c1.8-0.1,3.7-0.2,6.2-0.5c2.4-0.2,4.9-0.7,7.7-1.4c0,0,0,0,0,0c0,0,0.1,0,0.1,0 c0,0,0.1,0,0.1,0c0,0,0,0,0.1,0c0.2,0,0.5,0,0.7-0.1c0.1,0,0.2-0.1,0.4-0.1l0.2-0.1l0.4-0.1l0.2-0.1c0.1,0,0.3-0.1,0.4-0.1 c0,0,0.1,0,0.1,0c3.1-0.9,6.2-2,9.2-3.2c0.3-0.1,0.5-0.2,0.7-0.3c2.2-0.9,4.3-2,6.4-3.1c1.7-0.9,3.3-1.9,5-2.9 c7.3-4.6,13.8-10.5,19.4-17.3c2.7-3.4,5.2-7,7.3-10.7c1.9-3.3,3.7-7.1,5.4-11.6c2.5-6.6,4.1-13.8,4.8-21.6c0,0,0,0,0,0 c0-0.1,0-0.1,0-0.2c0-0.1,0-0.2,0-0.3c0,0,0,0,0,0c0-0.1,0-0.1,0-0.2c0-1.2,0.1-2.3,0.1-3.5l0-0.2v-0.5l0-0.2v-0.1v-0.7v-0.1l0-0.1 l0-0.3c0,0,0-0.1,0-0.1c0-0.1,0-0.3,0-0.4v-0.1c0,0,0-0.1,0-0.1c-0.1-4.9-0.5-9.8-1.3-15.1c0-0.3-0.1-0.6-0.1-1l0-0.2l-0.1-0.3 l-0.1-0.3l-0.1-0.5l-0.1-0.6l-0.1-0.6l0-0.1l-0.1-0.8l0-0.2l0-0.1l-0.1-0.5l0-0.1c-0.7-3.4-1.4-6.7-2.3-9.9l-0.1-0.3l-0.1-0.3 l-0.1-0.2c-0.4-1.5-0.9-3-1.4-4.5l0-0.1l0-0.1l-0.3-0.8l0-0.1l-0.1-0.1l-0.1-0.1l-0.1-0.3l0-0.1c0-0.1,0-0.1-0.1-0.3l-0.1-0.1 c-0.6-1.6-1.1-3-1.7-4.4c-3-7.3-6.4-13.8-10.4-19.7c-4.4-6.6-9.5-12.7-15.2-18c-9.8-9.1-21.2-15.7-33-19.2l-0.4-0.1 c0,0-0.1,0-0.1,0l-0.2,0l-0.3-0.1c0,0-0.1,0-0.1,0l-0.4-0.1l-0.1,0l-0.1,0l-0.3-0.1l-0.3-0.1c-1.6-0.4-3.2-0.7-4.7-1 c-0.3-0.1-0.5-0.1-0.8-0.1c0,0,0,0,0,0c0,0-0.1,0-0.1,0c0,0-0.1,0-0.1,0c0,0,0,0,0,0c-0.2,0-0.4-0.1-0.6-0.1 c-2.7-0.3-5.4-0.4-8.1-0.4c-5.6,0-11.2,0.6-16.6,1.7c-0.1,0-0.3,0-0.4,0.1c-0.1,0-0.3,0.1-0.4,0.1l-0.1,0l-0.2,0c0,0-0.1,0-0.1,0 c-1.4,0.3-2.9,0.7-4.2,1.1c-1.6,0.5-3.1,0.9-4.5,1.4c-3.5,1.2-7,2.7-10.3,4.4c-0.7,0.3-1.3,0.7-2,1.1c-3.4,1.9-6.8,4.1-10,6.5 c-0.5,0.4-1,0.8-1.6,1.3c0,0,0,0,0,0c0,0,0,0,0,0l0-0.1c0,0,0,0,0,0c-0.5,0.5-1,0.9-1.6,1.4c0,0-0.1,0.1-0.1,0.1 c-0.1,0.1-0.3,0.3-0.4,0.4c-0.1,0.1-0.3,0.3-0.4,0.4c0,0-0.1,0.1-0.1,0.1c-1.4,1.2-2.7,2.4-3.9,3.7l-0.1,0.1 c-0.3,0.3-0.5,0.5-0.8,0.8c-0.3,0.3-0.6,0.7-0.7,1.1c0,0,0,0,0,0c0,0,0,0,0,0.1c0,0,0,0,0,0.1c0,0,0,0,0,0c-3.2,3.5-6.2,7.5-9.2,12 c-3.6,5.3-6.6,10.8-8.9,16.3c-3.3,7.6-5.4,16.1-6.5,25.3c-0.3,2.4-0.5,4.9-0.6,7.3c0-0.1,0-0.2,0-0.3c0,0.1,0,0.1,0,0.2 c-0.4-6.9-0.4-13.7-0.1-20.3c0.7-10.8,2.4-20.7,5.2-29.4c2.4-7,5.5-13.5,9.2-19.4c4.1-6.2,8.9-11.9,14.3-16.9 c2.4-2.1,4.8-4.1,7.3-5.8c2.5-1.7,5.3-3.4,8.9-5.3c5-2.6,10.3-4.7,16-6.7c5.9-2,12-3.7,17.9-5c7.9-1.6,16.1-2.4,24.2-2.4 c2.1,0,4.2,0.1,6.4,0.2c4.4,0.3,8.6,0.8,12.6,1.5c4,0.7,8.1,1.8,12.6,3.2c7.3,2.5,14.3,5.8,20.9,10c6.8,4.5,12.9,9.5,18.1,15 c4.6,5.1,8.6,11,12.2,17.9c0.9,1.8,1.8,3.7,2.5,5.5c0.1,0.2,0.2,0.5,0.3,0.7c-0.7,0.1-1.4,0.2-2.1,0.3c-0.9,0.1-1.8,0.2-2.6,0.3 l-0.1,0c-1.6,0.2-3.2,0.4-4.8,0.7c-0.3,0.1-0.7,0.2-1,0.4c0,0,0,0,0,0c0,0-0.1,0-0.1,0.1c0,0-0.1,0-0.1,0c0,0,0,0,0,0 c-0.7,0.3-1.3,0.9-1.9,1.8c-0.2,0.3-0.3,0.5-0.5,0.8c0,0,0,0,0,0c0,0,0,0,0,0.1c0,0,0,0-0.1,0.1c0,0,0,0,0,0 c-0.3,0.4-0.6,0.8-0.7,1.3c-1.5,5.1-2,10.6-1.7,16.3c0.2,2.8,0.6,5.8,1.3,9.4c0.2,0.8,0.4,1.5,0.6,2.3c0.1,0.4,0.2,0.7,0.3,1.1 c0.1,0.2,0.1,0.5,0.2,0.7l0,0l0,0.1c0.1,0.5,0.3,1.1,0.4,1.6l0.6,2l0.6,2c0.6,1.8,1.3,3.7,1.9,5.3l0.4,0.9l0.1,0.4 c0.3,0.7,0.6,1.5,0.9,2.2l0.5,1l1.4,3.1c0.6,1.2,1.2,2.4,2,3.7l0.2,0.3c0.2,0.4,0.4,0.8,0.7,1.2c0.4,0.7,0.8,1.3,1.3,2l0.1,0.2 c0.2,0.3,0.4,0.5,0.5,0.8c0.7,1,1.4,2,2,2.9l1.7,2.2c1.2,1.7,2.7,3.3,4.7,5.1c0,0,0,0,0,0c0,0,0,0,0,0c-1.1,5.9-2.5,11.6-4.3,17.1 c-3.5,10.5-7.9,19.9-13.2,28.2c-4.1,6.3-8.2,11.3-12.6,15.4c-4,3.6-8.3,7-12.5,10.2l-0.1,0.1c-1.8,1.4-2.2,3.8-1,5.5 c0.7,1.1,2,1.7,3.4,1.7c0.8,0,1.6-0.3,2.2-0.7c4.6-3.6,8.8-6.9,12.8-10.5c0,0,0,0,0,0c0,0,0,0,0.1,0c0,0,0,0,0.1,0c0,0,0,0,0,0 c0.1-0.1,0.3-0.2,0.4-0.3c0.9-0.7,1.9-1.3,2.8-2l0.4-0.3c0.6-0.4,1.2-0.8,1.8-1.1l0.6-0.3c1.1-0.7,2.3-1.3,3.5-1.9l0.4-0.2 c0.4-0.2,0.8-0.4,1.2-0.6l0.5-0.2c1.3-0.6,2.5-1.2,3.8-1.7l3.9-1.6l2.8-1.2l2.9-1.2c2.9-1.2,5.8-2.4,8.7-3.6 c4.6-1.9,9.3-3.8,13.3-5.3c1.6-0.6,3.2-1.3,4.8-1.9c0.6-0.3,1.3-0.5,1.9-0.8l0.2-0.1c1.3-0.5,2.6-1,3.9-1.6 c8.9-3.9,17.2-7.6,25.3-11.3l0.1-0.1c0.3-0.1,0.5-0.2,0.8-0.4c0.1,0,0.1-0.1,0.2-0.1c0,0,0,0,0,0c0,0,0,0,0,0 c-0.4,1.7-0.7,3.6-0.8,5.5c-0.1,1.9,0,3.8,0.1,5.4c0.2,2.1,0.5,4,0.9,5.9c0.9,3.5,2.4,7.3,4.4,11.2c1.2,2.3,2.8,4.5,4.1,6.4 c0.8,1.2,1.7,2.3,2.6,3.6c1.1,1.5,2.4,2.9,3.7,4.3l0.2,0.2l0,0.1h0c0,0,0,0,0,0l-0.2,0.2l-0.8,0.6c-3.3,2.3-6.6,4.6-10.1,6.6 l-3.9,2.3c-2.7,1.5-5.3,3.1-8,4.6c-1.7,1-3.4,1.9-5,2.9l-1.2,0.7c-1.5,0.9-3.1,1.7-4.6,2.6c-2.3,1.3-4.6,2.7-6.9,4 c-0.2,0.1-0.3,0.2-0.5,0.3c0,0,0,0,0,0c0,0,0,0-0.1,0c-3.5,1.8-6.8,3.4-10.1,4.7c-2.1,0.9-3.2,3-2.4,5.1c0.6,1.6,2.1,2.7,3.8,2.7 c0.4,0,0.9-0.1,1.3-0.2c3.4-1.4,6.6-3,10.1-4.7l0.2,0.2c0.2,0.3,0.4,0.5,0.6,0.8c0,0,0,0,0,0c1.2,1.6,2.5,3.1,3.8,4.7l3.6,3.5 l0.3,0.3c4.6,4.5,9.4,9.2,14.5,13.3c0.4,0.2,0.8,0.5,1.3,1c2.6,1.9,5.3,3.7,8,5.5l1.4,0.9l1.4,0.9c0.5,0.3,1.1,0.6,1.6,0.9l0.2,0.1 c0.2,0.1,0.3,0.2,0.5,0.3l1.3,0.7c1.4,0.8,2.9,1.6,4.3,2.4c0.5,0.2,1,0.5,1.5,0.7l0.2,0.1c1.5,0.8,2.9,1.4,4.2,2 c1.6,0.6,3.1,1.2,4.7,1.9c1.2,0.5,2.4,0.9,3.5,1.2l0.7,0.2c0.6,0.2,1.3,0.4,2,0.6l0.6,0.2c1.5,0.5,3,1,4.5,1.5l0.3,0.1l0.2,0.1 l0.1,0c0.2,0,0.4,0.1,0.6,0.1c0,0,0,0,0,0c0,0,0,0,0,0c0,0,0,0,0,0c0,0,0,0,0,0c0.1,0,0.2,0.1,0.2,0.1c0.5,0.3,1.1,0.4,1.7,0.4 c1.6,0,3-0.9,3.6-2.2c0.4-0.9,0.8-1.8,1.3-2.7c1.2,0.4,2.4,0.8,3.7,1.2l1,0.3c5.6,1.8,11.5,3.7,16.9,6.3c2,1,3.4,2,4.7,3 c0.6,0.6,1.2,1.2,1.7,1.9c0.7,1.1,1.3,2.3,1.8,3.8c0.5,1.6,0.9,3.3,1.3,5.1c0,0.2,0.1,0.4,0.2,0.6c0,0,0,0,0,0c0,0,0,0,0,0 c0,0,0,0,0,0c0,0,0,0,0,0C439.5,345.2,438.8,348.8,438,352z M459.6,308l-0.1,0.1c-0.4,0.3-0.7,0.5-1.1,0.7c-2,0.8-4.3,1.6-7,2.2 c-0.6,0.1-1.2,0.1-1.8,0.2c-0.3,0-0.7,0.1-1,0.2c0,0,0,0,0,0c0,0,0,0-0.1,0l-0.1,0c0,0,0,0,0,0l-0.1,0c-0.6,0-1.1,0.1-1.6,0.3 c-0.8,0.4-1.8,1.2-2.1,2.2c-0.4,1.5-0.7,3.1-0.9,4.6l-0.1,0.7c-0.2,1.2-0.4,2.4-0.6,3.6l-0.1,0.7c-0.1,0.7-0.2,1.4-0.4,2 c0,0.1,0,0.2-0.1,0.4c0,0,0,0,0,0c0,0,0,0,0,0l-0.1-0.2l-0.2-0.3c-1.1-1.3-2.4-2.3-3.6-3.2c-1.6-1.1-3.3-2-5-2.9 c-1.9-0.9-3.9-1.8-5.9-2.6c-2.4-1-4.9-1.8-7-2.5c-2.7-0.9-5.4-1.7-8.1-2.7c-0.1,0-0.3-0.1-0.4-0.1c0,0,0,0,0,0c0,0,0,0,0,0 c0.1-0.4,0.3-0.8,0.4-1.3c0.5-1.5,0.8-3.2,1.1-5l0.1-0.9c0.4-2.7,0.8-5.4,1.5-8.1c0-0.1,0.1-0.2,0.1-0.3c0.7-0.1,1.4-0.1,2.2-0.1 c0.4,0,0.8,0,1.2,0c5.8,0.5,11.4,1.3,16.3,2c1.9,0.3,3.9,0.7,6.6,1.3l0.7,0.1l0.5,0.1c0.7,0.2,1.6,0.3,2.4,0.6l3.8,1.1l0.3,0.1 c2.9,1.1,6,2.2,8.6,3.8c0.5,0.4,0.9,0.7,1.2,1.1c0.1,0.2,0.3,0.4,0.4,0.6c0,0.1,0,0.1,0.1,0.2c0,0.2,0,0.4,0,0.5 C459.7,307.7,459.7,307.8,459.6,308z" fill="#041461"/></g><g id="change1_1"><path d="M208.3,47.6c-8.1,0-16.3,0.8-24.2,2.4c-6,1.3-12,3-17.9,5c-5.7,1.9-11,4.1-16,6.7c-3.6,1.9-6.4,3.5-8.9,5.3 c-2.5,1.7-4.9,3.7-7.3,5.8c-5.4,5-10.2,10.7-14.3,16.9c-3.7,5.9-6.8,12.4-9.2,19.4c-2.8,8.8-4.6,18.7-5.2,29.4 c-0.3,6.5-0.3,13.4,0.1,20.3c0.6-12,3-22.9,7.1-32.5c2.4-5.5,5.4-11,8.9-16.3c3.1-4.6,6.1-8.5,9.3-12.1c0.2-0.4,0.5-0.8,0.8-1.2 c0.3-0.3,0.5-0.5,0.8-0.8l0.1-0.1c1.4-1.4,2.9-2.9,4.5-4.2c0.7-0.6,1.4-1.3,2.1-1.9l0,0.1c3.7-3,7.6-5.6,11.6-7.8 c0.7-0.4,1.3-0.7,2-1.1c3.3-1.7,6.8-3.2,10.3-4.4c1.4-0.5,2.9-1,4.5-1.4c1.4-0.4,2.8-0.8,4.2-1.1c0,0,0.1,0,0.1,0l0.1,0l0.1,0 c0.1,0,0.3-0.1,0.4-0.1c0.1,0,0.3-0.1,0.4-0.1c5.4-1.1,11-1.7,16.6-1.7c2.7,0,5.4,0.1,8.1,0.4c0.3,0,0.5,0.1,0.8,0.1 c0.3,0,0.6,0,0.9,0.1c1.5,0.3,3.1,0.6,4.7,1l0.3,0.1l0.3,0.1l0.1,0l0.1,0l0.4,0.1c0,0,0.1,0,0.1,0l0.3,0.1l0.2,0c0,0,0.1,0,0.1,0 l0.4,0.1c11.8,3.4,23.2,10.1,33,19.2c5.7,5.3,10.8,11.4,15.2,18c3.9,5.9,7.3,12.3,10.4,19.7c0.6,1.4,1.1,2.8,1.7,4.4l0.1,0.1 c0,0.1,0.1,0.2,0.1,0.3l0,0.1l0.1,0.3l0.1,0.1l0.1,0.1l0,0.1l0.3,0.8l0,0.1l0,0.1c0.5,1.5,1,3,1.4,4.5l0.1,0.2l0.1,0.3l0.1,0.3 c0.9,3.2,1.7,6.5,2.4,9.9l0,0.1l0.1,0.5l0,0.1l0,0.2l0.1,0.8l0,0.1l0.1,0.6l0.1,0.6l0.1,0.5l0.1,0.3l0.1,0.3l0,0.2 c0.1,0.3,0.1,0.6,0.1,1c0.7,5.3,1.2,10.2,1.3,15.1c0,0,0,0.1,0,0.1l0,0.1c0,0.1,0,0.3,0,0.4c0,0,0,0.1,0,0.1l0,0.3l0,0.1v0.1v0.7 v0.1l0,0.2v0.5l0,0.2c0,1.2-0.1,2.3-0.1,3.5c0,0.2,0,0.4-0.1,0.6c-0.6,7.8-2.3,15.2-4.8,21.8c-1.7,4.4-3.5,8.2-5.4,11.5 c-2.2,3.7-4.6,7.3-7.3,10.7c-5.6,6.9-12.1,12.7-19.4,17.3c-1.6,1-3.3,2-5,2.9c-2.1,1.1-4.3,2.2-6.4,3.1c-0.2,0.1-0.4,0.2-0.7,0.3 c-3,1.2-6.1,2.3-9.2,3.2c0,0-0.1,0-0.1,0c-0.1,0-0.3,0.1-0.4,0.1l-0.2,0.1l-0.4,0.1l-0.2,0.1c-0.2,0-0.3,0.1-0.4,0.1 c-0.3,0.1-0.6,0.1-0.9,0.1c-2.8,0.7-5.4,1.1-7.8,1.4c-2.5,0.3-4.4,0.4-6.2,0.5l-1.5,0.1c-1.3,0.1-3,0.2-4.6,0.2c-0.8,0-1.6,0-2.4,0 c-2.6,0-5.4,0-8.3-0.3c-6.4-0.5-12.8-1.7-18.9-3.6c-6.7-2-12.3-4.4-17.3-7.1c-5.7-3.2-10.5-6.6-14.6-10.5 c-4.4-4.2-8.2-8.9-11.4-13.9c-2.1-3.4-3.9-6.4-5.3-9.4c0.2,0.7,0.4,1.4,0.6,2.1c0.9,2.9,2,6,3.3,9.3c0.7,1.9,1.8,4.7,3.2,7.4 c2,3.6,4.5,7.1,7.7,10.7c3.8,4,8.4,7.8,13.8,11.3c3.8,2.4,7.6,4.5,11.5,6.4c1.8,0.9,3.5,1.7,5.6,2.6c1.3,0.6,2.6,1.1,4.2,1.8 c1.1,0.5,2.2,0.8,3.1,1.1c1.6,0.4,3.7,1,5.7,1.4c0.3,0.1,0.6,0.2,0.9,0.3c1.4,0.2,2.8,0.4,4.2,0.7l0.2,0c0.6,0.1,1.1,0.2,1.7,0.3 l0.2,0c1.3,0.2,2.9,0.3,4.3,0.4l0.4,0l0.3,0c0.2,0,0.5,0,0.7,0l0.5,0c0.4-0.2,0.8-0.3,1.3-0.3c0.3,0,0.6,0,0.9,0.1l0.5-0.1l0.5-0.1 c1-0.2,1.8-0.3,2.6-0.5c0.3-0.1,0.7-0.2,1.1-0.2c1.7,0,3.4,1.2,3.8,2.9c0.6,2.1-0.6,4.3-2.8,4.9c-0.6,0.2-1.2,0.3-1.7,0.4l-0.4,0.1 c-1.1,0.2-2.2,0.3-3.3,0.5c-0.2,0-0.4,0-0.6,0.1c-0.8,0.3-1.6,0.7-2.4,1.1c-2.3,1.2-4.4,2.7-6.4,4.4c-2,1.9-3.7,3.6-5.2,5.3 l-0.7,0.8c-0.6,0.6-1.1,1.2-1.6,1.9l-2.7,3.5c-1.8,2.3-3.4,4.6-5.2,7.2l-0.1,0.2c-0.8,1.2-1.6,2.4-2.5,3.5 c-1.4,1.9-2.8,3.8-4.3,5.7c-0.5,0.6-1,1.2-1.5,1.8l-0.2,0.3c-0.2,0.3-0.5,0.6-0.7,0.9l-0.1,0.1c-0.4,0.5-0.9,1.1-1.4,1.6 c-0.3,0.4-0.7,0.8-1,1.1c-1,1.1-2,2.2-3,3.3c-1.9,1.9-3.4,3.4-5,4.9c-1.4,1.3-2.7,2.6-4.1,3.7c-1.9,1.6-4,3.1-6,4.4l0.2,0.3 c1.2,1.4,2.1,2.8,3,4.2c1,1.7,1.7,3.1,2.2,4.5c0.7,1.9,1.3,3.6,1.7,5.4l0.2,0.9c0.3,1.3,0.6,2.7,0.8,4c0.1,1.3,0.2,2.4,0.2,3.5 c0.6,0,1.2-0.1,1.9-0.2c0.5-0.1,1-0.1,1.4-0.1l0.4,0c1.6-0.2,3.2-0.3,4.7-0.5l7.5-1.2l0.8-0.2c1.8-0.4,3.5-0.7,5.3-1.2 c0.4-0.1,0.9-0.2,1.4-0.3c0.9-0.2,1.8-0.4,2.7-0.7l1.9-0.6l1.9-0.6c2-0.7,3.9-1.4,6.2-2.4c2.1-0.9,4.2-1.8,6.4-2.9 c4.5-2.4,9.4-5,14.3-7.7c0.6-0.3,1.2-0.5,1.7-0.6l-0.3-0.8l-1-2L199,329c-0.2-0.3-0.3-0.6-0.4-0.9l-3-7.7c-1.9-5-3.1-9.5-3.4-13.7 c-0.1-1.2,0.1-2.2,0.7-3c0.6-0.8,1.6-1.4,2.6-1.6c0.2,0,0.4,0,0.6,0c1.8,0,3.8,1.3,4,3.3c0.1,0.6,0.1,1.2,0.2,1.9 c1.6-0.2,2.9-0.4,4.1-0.7c1.5-0.4,3.1-0.8,4.6-1.2l3-1l2-0.7c1.8-0.6,3.6-1.3,5.3-1.9c0.6-0.2,1.2-0.4,1.8-0.7l0.1,0l0.1,0 c1.2-0.4,2.4-0.9,3.6-1.4l0.2-0.1l0.2-0.1c3.6-1.5,8.1-3.4,12.4-5.2l1.3-0.6c1.3-0.5,2.6-1.1,3.9-1.8c2.3-1.1,4.6-2.3,6.9-3.4 c0.6-0.3,1-0.6,1.5-0.8c0.3-0.2,0.6-0.3,0.8-0.5l1.9-1.1l1.9-1.1c1.3-0.7,2.6-1.5,3.8-2.3l0.2-0.1l1.5-0.9c3.2-2,7.1-4.3,11.1-6.3 c0.9-0.4,1.7-0.9,2.6-1.3l0.3-0.1c1.6-0.7,3.2-1.5,4.9-1.6c0.1,0,0.3,0,0.4,0c1.7,0,3.2,0.5,4.5,1.4c1.1,0.8,2.2,1.8,3.1,2.8 c1.7,2,3.3,4.5,4.8,7.6c2.1,4.1,4,8.3,6.2,13.1c0.9,2,1.8,3.9,2.7,5.9c0.3,0.6,0.5,1.2,0.8,1.7c0.7,1.4,1.3,2.8,1.8,4.2 c0.1,0.3,0.2,0.5,0.2,0.8c0.2,0.4,0.3,0.9,0.4,1.3l0.1,0.3c0,0.2,0,0.3,0.1,0.5c0,0.1,0,0.2,0,0.4c0,0,0,0.1,0,0.1 c0,0.3,0,0.7,0,1.1l0,0.2c0,0.2-0.1,0.4-0.1,0.6c-0.1,0.2-0.1,0.5-0.2,0.7c0,0.1-0.1,0.2-0.1,0.3c0,0.1-0.1,0.2-0.1,0.3 c0,0.1-0.1,0.1-0.1,0.2l-0.1,0.2c-0.2,0.4-0.5,0.7-0.8,1.1c-0.1,0.1-0.1,0.1-0.2,0.2l-0.1,0.1c-0.1,0.1-0.2,0.2-0.3,0.3 c-0.1,0.1-0.2,0.2-0.2,0.2c-2.5,2.3-5.3,4.3-7.9,6.3l-0.6,0.5c-2.9,2.2-5.9,4.2-8.9,6.1l-0.3,0.2l-2.1,1.4 c-1.2,0.8-2.4,1.5-3.5,2.1l-1.1,0.7c-0.4,0.3-0.9,0.5-1.3,0.8l-0.5,0.3l-0.1,0.1l-0.1,0.1c-1.1,0.7-2.3,1.4-3.5,2.1l-2.8,1.5 c-3.6,1.9-8,4.3-12.3,6.4c-4.8,2.3-11.2,5.2-18,7.3c-3.7,1.1-6.8,1.9-9.5,2.3c-1.8,0.3-3.7,0.6-6,0.9c0.7,1.1,1.6,2.2,2.5,3.4 l0.2-0.1c0.1,0.1,0.1,0.2,0.2,0.3c1,1.2,1.9,2.4,2.8,3.7l1.1,1.5l0.3,0.4l0.2,0.3l0.1,0.1c0.3,0.4,0.7,0.9,1,1.3 c0.4,0.5,0.9,1,1.4,1.3c1.4,1.6,2.9,3.1,4.4,4.6c5.8,5.5,12.5,10.4,20,14.6c8.4,4.6,16.2,7.7,23.7,9.7c3.8,0.8,7.9,1.3,12.5,1.3 c0.5,0,1,0,1.5,0c5.7-0.2,11.7-1.2,17.7-3c4.6-1.4,8.4-2.8,11.7-4.4c2-1,4-1.9,6.1-2.9c1.1-0.5,2.2-1.1,3.2-1.7 c0.6-0.3,1.1-0.6,1.6-0.8c1-0.5,2-1.1,3-1.7l0.4-0.2c2.5-1.6,4.7-3.1,6.8-4.7c0.7-0.5,1.6-0.8,2.5-0.8c1.2,0,2.4,0.5,3.1,1.5 c0,0.1,0.1,0.1,0.1,0.2c0.2,0.1,0.4,0.2,0.6,0.3c2.3,1.3,4.7,2.8,7,4.3l2,1.4l0.2,0.1c2.5,1.7,5.1,3.5,7.8,5 c3.9,2,7.6,3.5,11.6,4.6c3.4,0.8,7,1.2,10.7,1.2h0.3c4-0.2,7.6-0.7,11-1.6c3.1-1,5.9-2.2,8.5-3.7c3.5-2.3,6.9-5.1,10.2-8.5 c3.4-3.7,6.4-7.8,9-12.3c2.9-5.5,5.3-11.8,7.3-19.2c0.8-3.3,1.5-6.8,2.3-10.9c-0.1-0.2-0.1-0.4-0.2-0.6c-0.4-1.8-0.9-3.5-1.3-5.1 c-0.5-1.5-1.1-2.7-1.8-3.8c-0.5-0.7-1.1-1.3-1.7-1.9c-1.3-1-2.7-1.9-4.7-3c-5.4-2.6-11.3-4.5-16.9-6.3l-1-0.3 c-1.2-0.4-2.4-0.8-3.7-1.2c-0.4,0.9-0.9,1.8-1.3,2.7c-0.6,1.3-2,2.2-3.6,2.2c-0.6,0-1.2-0.1-1.7-0.4c-0.1,0-0.2-0.1-0.3-0.1 c-0.2,0-0.5,0-0.7-0.1l-0.1,0l-0.2-0.1l-0.3-0.1c-1.5-0.5-3-1-4.5-1.5l-0.6-0.2c-0.7-0.2-1.3-0.4-2-0.6l-0.7-0.2 c-1.1-0.4-2.3-0.8-3.5-1.2c-1.6-0.6-3.1-1.2-4.7-1.9c-1.4-0.6-2.7-1.2-4.2-2l-0.2-0.1c-0.5-0.3-1-0.5-1.5-0.7 c-1.5-0.7-2.9-1.5-4.3-2.4l-1.3-0.7c-0.2-0.1-0.3-0.2-0.5-0.3l-0.2-0.1c-0.5-0.3-1.1-0.6-1.6-0.9l-1.4-0.9l-1.4-0.9 c-2.7-1.8-5.4-3.6-8-5.5c-0.4-0.4-0.8-0.7-1.3-1c-5.2-4.1-9.9-8.8-14.5-13.3l-0.3-0.3l-3.6-3.5c-1.5-1.8-2.9-3.6-4.4-5.5l-0.2-0.2 c-3.6,1.8-6.8,3.4-10.1,4.7c-0.4,0.2-0.8,0.2-1.3,0.2c-1.6,0-3.2-1.1-3.8-2.7c-0.7-2,0.3-4.2,2.4-5.1c3.4-1.4,6.6-3,10.1-4.7 c0.2-0.2,0.4-0.3,0.6-0.4c2.3-1.4,4.6-2.7,6.9-4c1.5-0.9,3.1-1.7,4.6-2.6l1.2-0.7c1.7-1,3.4-1.9,5-2.9c2.7-1.5,5.4-3.1,8-4.6 l3.9-2.3c3.5-2,6.9-4.4,10.1-6.6l0.8-0.6l0.2-0.2l0-0.1l-0.2-0.2c-1.3-1.4-2.5-2.9-3.7-4.3c-1-1.2-1.8-2.4-2.6-3.6 c-1.3-1.9-2.9-4.1-4.1-6.4c-2.1-3.9-3.6-7.7-4.4-11.2c-0.5-1.9-0.8-3.8-1-5.9c-0.1-1.6-0.3-3.5-0.1-5.4c0.1-1.9,0.4-3.8,0.8-5.5 c-0.3,0.1-0.7,0.3-1,0.4l-0.1,0.1c-8.1,3.7-16.4,7.4-25.3,11.3c-1.3,0.6-2.6,1.1-3.9,1.6l-0.2,0.1c-0.6,0.3-1.3,0.5-1.9,0.8 c-1.6,0.6-3.2,1.3-4.8,1.9c-4,1.6-8.7,3.4-13.3,5.3c-2.9,1.2-5.8,2.4-8.7,3.6l-2.9,1.2l-2.8,1.2l-3.9,1.6c-1.2,0.5-2.4,1.1-3.8,1.7 l-0.5,0.2c-0.4,0.2-0.8,0.4-1.2,0.6l-0.4,0.2c-1.2,0.6-2.4,1.2-3.5,1.9l-0.6,0.3c-0.6,0.3-1.2,0.7-1.8,1.1l-0.4,0.3 c-0.9,0.7-1.9,1.3-2.8,2c-0.2,0.1-0.3,0.2-0.5,0.3c-4,3.6-8.2,6.9-12.9,10.5c-0.6,0.5-1.4,0.7-2.2,0.7c-1.3,0-2.6-0.7-3.4-1.7 c-1.2-1.8-0.8-4.2,1-5.5l0.1-0.1c4.2-3.2,8.5-6.6,12.5-10.2c4.4-4.1,8.5-9.2,12.6-15.4c5.2-8.2,9.6-17.7,13.2-28.2 c1.8-5.5,3.2-11.2,4.3-17.1c-2-1.8-3.5-3.4-4.7-5.1l-1.7-2.2c-0.7-0.9-1.4-1.9-2-2.9c-0.2-0.3-0.3-0.5-0.5-0.8l-0.1-0.2 c-0.5-0.7-0.9-1.3-1.2-2c-0.2-0.4-0.4-0.8-0.7-1.2l-0.2-0.3c-0.7-1.3-1.4-2.5-2-3.7l-1.4-3.1l-0.5-1c-0.3-0.7-0.6-1.5-0.9-2.2 l-0.1-0.4l-0.4-0.9c-0.6-1.5-1.3-3.4-1.9-5.3l-0.6-2l-0.6-2c-0.2-0.5-0.3-1.1-0.4-1.6l0-0.1l0,0c-0.1-0.2-0.1-0.5-0.2-0.7 c-0.1-0.4-0.2-0.7-0.3-1.1c-0.2-0.8-0.4-1.5-0.6-2.3c-0.7-3.6-1.1-6.6-1.3-9.4c-0.3-5.8,0.3-11.3,1.7-16.3c0.2-0.5,0.4-1,0.8-1.4 c0.2-0.3,0.3-0.6,0.5-0.9c0.6-1,1.2-1.5,2-1.8c0.4-0.3,0.8-0.4,1.1-0.5c1.6-0.3,3.2-0.5,4.8-0.7l0.1,0c0.9-0.1,1.8-0.2,2.6-0.3 c0.7-0.1,1.4-0.2,2.1-0.3c-0.9-2.1-1.8-4.2-2.8-6.3c-3.6-6.9-7.6-12.8-12.2-17.9c-5.2-5.5-11.3-10.6-18.1-15 c-6.6-4.2-13.6-7.5-20.9-10c-4.4-1.4-8.6-2.5-12.6-3.2c-4-0.7-8.2-1.2-12.6-1.5C212.5,47.7,210.4,47.6,208.3,47.6L208.3,47.6 L208.3,47.6z" fill="#FFF5E4"/></g><g id="change1_2"><path d="M348.6,387.8C348.6,387.8,348.6,387.8,348.6,387.8c-1,0.7-2,1.3-2.9,2c-1.8,1.2-3.9,2.5-6.1,3.7 c-0.5,0.3-1.1,0.6-1.6,0.9c-1.3,0.7-2.5,1.3-3.7,1.9c-0.7,0.3-1.3,0.6-2,1c-1.6,0.8-3.3,1.6-4.9,2.3c-6.6,2.8-12.5,4.7-18.1,5.9 l-0.9,0.2c0.4,0.8,0.9,1.6,1.4,2.4c1.8,2.5,3.9,4.9,5.9,7.1l0.9,1c2.4,2.7,5,5.6,8,8.1c1,0.8,2.4,1.9,4,2.9 c1.4,0.9,2.9,1.7,4.5,2.5c3.1,1.3,6.4,2.3,9.7,2.9c1.8,0.3,3.7,0.4,5.6,0.4c1,0,2,0,3-0.1c2.6-0.3,5.2-0.9,7.8-1.8 c2.2-0.9,4.1-1.7,5.7-2.7c1.5-0.9,3.1-1.9,4.7-2.9c3.7-2.7,7-5.7,9.8-8.9c1.8-2.3,3.5-4.9,5.5-8.2c0.6-1,1.2-2.1,1.8-3.1 c-3.1-0.3-6.2-0.9-9.1-1.7c-3.3-0.9-6.4-2.1-9.2-3.6c-2.8-1.4-5.4-3-7.8-4.6c-1.4-0.9-2.8-1.8-4.2-2.8l-1.8-1.2 C352.5,390.1,350.6,389,348.6,387.8L348.6,387.8L348.6,387.8L348.6,387.8z" fill="#FFF5E4"/></g><g id="change1_3"><path d="M280.5,280.3L280.5,280.3l-0.2,0c-1.2,0.5-2.5,1.1-3.5,1.6l-0.8,0.4c-1.2,0.6-2.2,1.1-3.2,1.7 c-2.6,1.5-5.1,2.9-7.6,4.4l-1.5,0.9c-1.5,0.9-3.3,2-5,3l-1.5,0.9l-0.1,0.1c-1.9,1.1-3.8,2.2-5.7,3.2l-2.1,1.1l-2.2,1.1l-0.7,0.3 c-0.4,0.2-0.9,0.4-1.3,0.6c-2.3,1-4.6,2-6.9,3.1c-1.6,0.7-3.3,1.4-4.8,2l-1.1,0.5l-0.7,0.3c-1.3,0.6-2.7,1.1-4.1,1.7l-3.8,1.4 l-3.8,1.4c-1.3,0.5-2.7,0.9-3.9,1.3l-0.3,0.1l-1.5,0.5c-0.3,0.1-0.7,0.2-1,0.3c-0.9,0.3-1.8,0.6-2.6,0.8l-3.3,0.8 c-1.6,0.4-3.3,0.8-5.2,1.1l0.1,0.2l0.1,0.2c0.1,0.3,0.2,0.6,0.3,0.8c0.5,1.6,1.1,3.1,1.6,4.5l0.3,0.7l0.3,0.7 c0.6,1.5,1.1,3,1.8,4.4l3.9,8.2c1.6,3.4,3.6,7,6.2,11.3c0.8,1.2,1.5,2.5,2.3,3.7c0.2-0.1,0.4-0.1,0.6-0.2c0.3,0,0.7-0.1,1.1-0.1 l0.2,0c0.4-0.1,0.8-0.1,1.2-0.1l0.4-0.1c2-0.3,4.1-0.5,6-0.9c2.5-0.5,4.6-1,6.6-1.6c3.5-1,7.3-2.3,11.6-4.1l-0.3,0.1l0.4-0.1 l0.2-0.1l0.1-0.1l0.1-0.1c4.2-1.8,7.9-3.5,11.2-5.3l4.7-2.5l1.6-0.9l0.6-0.3l0.6-0.3c0.9-0.5,1.9-1,2.8-1.5c2-1.2,3.9-2.3,5.9-3.5 l0.9-0.6c0.9-0.5,1.9-1.1,2.8-1.7l3-1.9l3-2c2.8-1.8,5.5-3.8,8.2-5.9c1.6-1.2,3-2.3,4.3-3.5c0.1-0.1,0.1-0.1,0.2-0.2l0-0.1 c-0.1-0.2-0.2-0.4-0.3-0.7l-0.1-0.2l-0.1-0.2c-0.1-0.2-0.2-0.3-0.2-0.5l-0.1-0.2l-0.1-0.3l-0.1-0.1l-0.1-0.1 c-0.2-0.5-0.4-1-0.6-1.4l-0.1-0.3l-0.1-0.3c-0.3-0.6-0.5-1.1-0.8-1.7l-0.5-1.2c-0.7-1.6-1.4-3.2-2.2-4.8l-0.6-1.3 c-0.7-1.5-1.4-3-2.1-4.5l-0.6-1.2c-1.3-2.9-2.7-5.8-4.4-8.5c-0.9-1.5-1.8-2.7-2.8-3.7C281,280.7,280.8,280.5,280.5,280.3 C280.5,280.3,280.5,280.3,280.5,280.3L280.5,280.3L280.5,280.3z" fill="#FFF5E4"/></g><g id="change1_4"><path d="M314.6,110.1C314.6,110.1,314.6,110.1,314.6,110.1L314.6,110.1c-0.3,0.9-0.5,1.7-0.7,2.5 c-0.5,3.6-0.6,7.5-0.3,11.5c0.5,4.6,1.6,9.2,3.2,13.7c1.7,4.4,3.6,8.1,5.8,11.4c1.2,1.7,2.5,3.1,4,4.5c0.1,0.1,0.1,0.1,0.1,0.1 c0,0,0.1,0,0.1,0c0,0,0,0,0,0c0.1-0.2,0.2-0.4,0.4-0.6c0.2-0.5,0.3-1,0.5-1.6c0.2-1.3,0.2-2.4,0.2-3.5c-0.1-1.2-0.2-2.4-0.3-3.6 c-0.2-2.2-0.5-3.8-0.8-5.3c-0.3-1.4-0.6-2.7-0.8-4.1c-0.8-3.9-1.9-7.7-3.2-11.3c-1.5-3.8-3.2-7.2-5.3-10.3 C316.6,112.3,315.6,111.1,314.6,110.1C314.6,110.1,314.6,110.1,314.6,110.1L314.6,110.1L314.6,110.1z" fill="#FFF5E4"/></g><g id="change1_5"><path d="M306.8,108.2L306.8,108.2c-0.4,0-0.9,0.1-1.3,0.1l-0.7,0.1l-0.7,0.1c-1.8,0.2-3.5,0.4-5.3,0.6 c-2.3,0.2-4.6,0.5-6.8,0.8c-0.9,0.1-1.8,0.2-2.6,0.4l-0.2,0l-1.7,0.2l-0.2,0.4l-0.1,0.1c-0.3,1-0.5,2.1-0.8,3.5 c-0.1,0.8-0.2,2.1-0.3,3.3c-0.2,2.5-0.1,5.1,0.1,8.1c0.4,3.1,1.1,6.1,1.7,8.6c0.3,1.4,0.7,2.8,1.2,4.3c0.1,0.4,0.3,0.9,0.4,1.3 c0.3,1,0.6,2.2,1.1,3.3l1,2.6l0.6,1.6l0.4,0.9c0.9,2,1.9,4.1,3,6.1c0.2,0.3,0.3,0.6,0.5,0.9l0,0.1c0.4,0.7,0.8,1.5,1.3,2.2l1.1,1.7 l1.1,1.7l1.9,2.5c0.9,1.2,1.8,2.3,2.9,3.4c1.1-0.4,2.1-0.9,3.2-1.4c1-0.4,1.9-0.9,2.9-1.4l0.4-0.2c2.4-1.3,4.9-2.7,7.4-4.3 c0.7-0.4,1.4-0.9,2-1.3c-1.1-1.1-1.9-2-2.6-2.9c-3.5-4.6-6.3-9.9-8.6-16.2c-2.2-6.2-3.4-12.4-3.6-18.3c-0.1-3.5,0.1-6.6,0.5-9.6 C306.3,110.6,306.5,109.4,306.8,108.2C306.8,108.3,306.8,108.2,306.8,108.2L306.8,108.2L306.8,108.2z" fill="#FFF5E4"/></g><g id="change1_6"><path d="M310.9,208.1C310.9,208.1,310.9,208.1,310.9,208.1c-1.6,0.3-3.2,0.8-4.9,1.4c-1.5,0.6-3,1.2-4.5,1.9 l-0.7,0.3c-1.7,0.7-3.4,1.4-5.3,2.1c-2,3.9-4.2,7.7-6.4,11.1l4.9-2l3-1.3l1.5-0.6c5.1-2.2,10.4-4.4,15.6-6.4 c1.6-0.6,3.2-1.2,4.8-1.9c-1.7-1.4-3.8-2.9-6-4c-0.6-0.2-1.1-0.4-1.7-0.6C311.1,208.1,311,208.1,310.9,208.1L310.9,208.1 L310.9,208.1z" fill="#FFF5E4"/></g><g id="change1_7"><path d="M399.6,178.2C399.6,178.2,399.6,178.2,399.6,178.2c-0.1,0.1-0.1,0.2-0.2,0.2c0,0-0.1,0-0.1,0.1l-0.1,0.1 l-0.1,0.1l-0.2,0.1l-0.1,0.1l-0.3,0.2c-0.2,0.2-0.5,0.4-0.7,0.6l-0.1,0.1l-0.1,0.1l-0.1,0.1l-0.1,0.1l-0.1,0.1l-0.1,0.1l-0.1,0.1 c-1.5,1.2-3.1,2.5-4.7,3.8c-0.2,0.2-0.5,0.3-0.7,0.5l-0.4,0.3l-0.9,0.7l-0.2,0.1c-1.1,0.8-2.2,1.6-3.3,2.4 c-1.6,1.1-3.3,2.2-5.5,3.6c-1.3,0.8-2.6,1.6-3.9,2.4l-1.1,0.6c-1.3,0.8-2.6,1.5-4,2.3c-0.6,0.5-1.3,1.2-2,1.9 c-0.7,0.9-1.2,1.8-1.8,2.8c-0.7,1.6-1.2,3.2-1.5,4.9c-0.3,2.2-0.4,4.4-0.3,6.9c0.3,2.7,0.8,5.4,1.7,8.1c1.2,3.4,2.9,6.8,5.1,10.3 l0.2,0.3c1.1,1.6,2.4,3.4,3.7,5.1c0.8,1,1.6,2,2.5,2.9l0.7,0.8l0.3,0.4l0.3,0.3c0.9-0.7,1.9-1.5,2.8-2.2l0.4-0.3l0.4-0.4 c1.9-1.7,3.8-3.4,5.6-5.3c2.2-2.4,4.4-5,6.5-8.1c1-1.5,1.8-3.2,2.5-5.1l0.2-0.5c0.4-1.4,0.8-2.6,1.1-3.9c0.3-1.7,0.7-3.3,1-5 c0.5-2.8,0.9-5.6,1.3-9.2c0.1-1,0.1-2.2,0.1-3.5c0-1.6-0.1-3-0.2-4.5l0-0.5c-0.3-2.9-0.6-5.9-1.1-8.8c-0.5-2.1-1.1-4-1.8-5.6 C399.9,178.6,399.8,178.4,399.6,178.2L399.6,178.2L399.6,178.2L399.6,178.2z" fill="#FFF5E4"/></g><g id="change1_8"><path d="M366.8,261.3L366.8,261.3c-2,1.2-4.1,2.3-6.1,3.5c-2.7,1.6-5.5,3.1-8.2,4.7c-0.3,0.4-0.6,0.7-1,0.9 c-3.3,2-6.2,3.7-9.1,5.2c0.5,0.5,1.1,0.9,1.7,1.4l0.3,0.3l0.3,0.3l2.6,2.6l2.6,2.6c0.9,0.8,1.7,1.7,2.6,2.5l0.7,0.6l1.8,1.8 c3.9,3.8,8.2,7.4,12.9,10.8l3.3,2.2l3.3,2.2c0.5,0.3,1,0.6,1.5,0.9l0.6,0.3l1.1,0.6c1.1,0.6,2.1,1.2,3.2,1.8c1.5,0.8,3,1.6,4.5,2.3 c0.7,0.3,1.4,0.6,2,1c0.6,0.3,1.3,0.5,1.9,0.8l0.6,0.3c1.3-3,2.2-5.9,2.8-8.9c0.3-2,0.4-3.7,0.3-5.4c-0.2-1-0.4-2-0.7-3 c-0.9-2-2.2-3.9-3.4-5.8l-0.4-0.6c-0.9-1.3-1.9-2.6-3-3.9c-1.4-1.7-2.9-3.4-4.3-5c-2.7-3.2-5.5-6.3-8.2-9.5 c-1.6-1.9-3.3-3.9-4.6-5.5L366.8,261.3L366.8,261.3L366.8,261.3L366.8,261.3z" fill="#FFF5E4"/></g><g id="change1_9"><path d="M417.7,295.9c-0.8,0-1.5,0-2.2,0.1c-0.1,0.1-0.1,0.2-0.1,0.3c-0.8,2.6-1.2,5.4-1.5,8.1l-0.1,0.9 c-0.3,1.8-0.6,3.5-1.1,5c-0.1,0.4-0.3,0.8-0.4,1.3c2.8,1,5.7,1.9,8.5,2.8c2.1,0.7,4.5,1.5,7,2.5c2,0.8,4,1.6,5.9,2.6 c1.8,0.9,3.5,1.7,5,2.9c1.2,0.9,2.6,1.9,3.6,3.2l0.2,0.3l0.1,0.2c0.2-0.8,0.3-1.6,0.4-2.4l0.1-0.7c0.2-1.2,0.4-2.4,0.6-3.6l0.1-0.7 c0.2-1.5,0.4-3.1,0.9-4.6c0.3-1,1.2-1.8,2.1-2.2c0.5-0.2,1.1-0.3,1.6-0.3l0.2,0c0.3-0.1,0.7-0.2,1.1-0.2c0.6,0,1.2-0.1,1.8-0.2 c2.7-0.6,4.9-1.4,7-2.2c0.4-0.2,0.8-0.5,1.1-0.7l0.1-0.1c0.1-0.2,0.1-0.4,0.1-0.5c0-0.2,0-0.4,0-0.5c0-0.1,0-0.1-0.1-0.2 c-0.1-0.2-0.3-0.4-0.4-0.7c-0.4-0.4-0.8-0.7-1.2-1.1c-2.7-1.6-5.7-2.7-8.6-3.8l-0.3-0.1l-3.8-1.1c-0.8-0.2-1.6-0.4-2.4-0.6 l-0.5-0.1l-0.7-0.1c-2.6-0.6-4.6-1-6.6-1.3c-4.8-0.7-10.5-1.5-16.3-2C418.5,295.9,418.1,295.9,417.7,295.9L417.7,295.9L417.7,295.9 z" fill="#FFF5E4"/></g><g id="change1_10"><path d="M126.5,332.5L126.5,332.5c-2.4,0.9-4.7,1.6-7,2c-1.2,0.2-2.2,0.4-3.2,0.5c-0.9,0.1-1.7,0.1-2.3,0.1l-0.6,0 c-1.3,0-2.7-0.2-4-0.4l-0.5-0.1c0.1,0.4,0.2,0.8,0.4,1.3c0.4,0.8,1,1.5,1.6,2.3c2.6,2.7,5.7,4.9,8.4,6.9c1.1,0.8,2.1,1.5,3.2,2.3 l0.3,0.2c1.2,0.9,2.4,1.8,3.6,2.6c0.7,0.4,1.4,0.8,2.1,1.1c1,0.3,2.1,0.4,3.3,0.5c0.8,0,1.5,0,2.3,0c0.1-0.6,0.1-1.2,0-1.8 c-0.2-2.4-0.8-5-1.8-8c-0.4-1.1-0.9-2.3-1.5-3.5c-0.5-0.9-0.9-1.7-1.5-2.6c-0.8-1.2-1.5-2-2.2-2.7C127,333,126.7,332.7,126.5,332.5 L126.5,332.5L126.5,332.5L126.5,332.5z" fill="#FFF5E4"/></g><g id="change1_11"><path d="M97.2,152.9L97.2,152.9c-0.5,0.4-1,0.7-1.5,1.1c-1.8,1.4-3.6,2.8-5.4,4.3c0,0.5,0.1,1,0.1,1.4 c0,0.4,0.1,0.8,0.1,1.1c0.1,1.1,0.2,2.3,0.3,3.4c0.3,2.6,0.6,5.2,0.9,7.7c0.8,5.8,1.5,10.2,2.3,14.3c0.3,1.5,0.6,3,1,4.5 c0.4,0.2,0.8,0.4,1.3,0.5c1.7,0.6,3.5,1.1,5.4,1.5c-1.1-5.7-2-11.4-2.7-16.9c-0.9-7.6-1.4-13.8-1.6-19.5 C97.2,155.2,97.2,154,97.2,152.9C97.2,152.9,97.2,152.9,97.2,152.9L97.2,152.9L97.2,152.9z" fill="#FFF5E4"/></g><g id="change3_1"><path d="M189.4,80c-3.2,0-6.4,0.2-9.5,0.6c-5.4,0.8-10.8,2.1-16,4c-0.9,0.3-1.7,0.7-2.6,1c-2.3,1-4.5,2.1-6.6,3.3 c-3.2,1.8-6.4,3.9-9.4,6.1c-1.3,1-2.6,2.1-3.8,3.2c-5.4,5.3-10.4,11.5-14.9,18.4c-4,6.4-7.1,12.9-9.2,19.4 c-2.3,7.4-3.6,15.5-4.1,23.9c-0.1,4.7,0,9.7,0.4,15.8c0.2,2.9,0.4,5.3,0.8,7.6c0.3,2.3,0.7,4.6,1.3,7.1c0.9,3.7,1.8,6.8,2.9,9.5 c1,2.7,2.3,5.3,3.7,8.1c3.4,6.2,7,11.4,10.9,15.8c3.6,3.8,7.6,7.1,11.7,9.9c2.9,1.8,5.9,3.4,8.8,4.7c2.8,1.3,5.9,2.5,9.4,3.6 c7.4,2.3,14.9,3.6,22.5,4c0.5,0,1,0,1.5,0l1.2,0l0.9,0c0.3,0,0.7,0,1,0l0.4,0l0.4,0c0.4,0,0.8,0,1.2,0l1.6-0.1 c1.5-0.1,3-0.1,4.5-0.2c0.4,0,0.8-0.1,1.2-0.1c0.8,0,1.5-0.1,2.3-0.2c0.4,0,0.8-0.1,1.1-0.1l0.2,0c0.7-0.1,1.4-0.1,2-0.2 c2-0.3,3.7-0.7,5.2-1c0.6-0.1,1.1-0.3,1.7-0.4c0.1,0,0.3-0.1,0.4-0.1c2.9-0.8,5.7-1.8,8.6-2.9l0.1,0l0.1-0.1c0.1,0,0.3-0.1,0.4-0.2 l0.2-0.1c0.1,0,0.2-0.1,0.3-0.1l0.1-0.1l0.1-0.1l0.1-0.1c5.2-2.4,10.2-5.3,14.8-8.8c4.8-3.8,9.2-8.2,13-13c3.8-5,6.9-10.4,9.4-16.1 c2.4-6,4.1-12.2,5-18.5c0.1-1.1,0.3-2.3,0.3-3.4c0-0.1,0-0.3,0-0.4c0-1.3,0.1-2.6,0.1-3.9v-0.3c0-0.2,0-0.4,0-0.5 c0-0.2,0-0.4,0-0.6c0-0.3,0-0.6,0-0.9v-0.2c-0.1-4.3-0.4-8.6-0.9-12.9l-0.2-1.2l0-0.3l0-0.2c-0.1-0.3-0.1-0.5-0.1-0.8l-0.1-0.5 l-0.1-0.5l0-0.1l-0.1-0.7l-0.1-0.7c-0.7-3.8-1.6-7.4-2.6-10.9c-0.5-1.6-0.9-3.1-1.4-4.4c-0.2-0.5-0.3-1-0.5-1.5l-0.1-0.2l-0.1-0.2 l0-0.1l0-0.1l-0.1-0.3c-0.6-1.6-1.1-3.1-1.7-4.5l-0.1-0.1l-0.1-0.2l-0.1-0.2c-3.5-8.1-7.9-15.7-13.1-22.6 c-4.8-6-10.1-11.4-15.9-15.9c-5.2-4-10.8-7.2-16.6-9.8c-4.6-1.9-9.3-3.3-13.9-4.1C194.7,80.1,192,80,189.4,80L189.4,80L189.4,80z" fill="#91ABDC"/></g><g id="change1_12"><path d="M137.4,122.6c-1.3,0.1-2.5,0.7-3.6,1.4c-1.9,1.3-3.4,3.2-4.5,5.2c-0.7,1.3-1.3,2.7-1.9,4.1 c-0.2,0.5-0.4,0.9-0.7,1.4c-1.1,2.4-1.6,4.9-2.1,7.5c-0.4,2.4-0.6,4.8-0.7,7.2c-0.1,2.6-0.1,5.2,0.5,7.7c0.3,1.2,0.7,2.3,1.4,3.3 c0.6,1,1.4,1.8,2.4,2.5c0.5,0.4,1.1,0.6,1.6,0.8c0.5,0.2,1.2,0.3,1.7,0.3c0.6,0.1,1.3-0.1,1.9-0.3c0.9-0.3,1.6-0.7,2.4-1.3 c1.7-1.3,2.9-3.1,3.9-4.9c0.6-1.1,1.1-2.2,1.6-3.3c0.6-1.2,1.1-2.4,1.5-3.6c0.8-2.2,1.4-4.4,1.9-6.7c0.4-2,0.7-3.9,0.9-5.9 c0.1-1,0.2-2,0.3-3c0.2-2.3,0.4-4.8-0.3-7c-0.4-1.1-0.9-2.1-1.8-3c-0.9-0.9-1.9-1.4-3-2c-0.5-0.3-1.3-0.4-1.8-0.4 c-0.3,0-0.6-0.1-0.9-0.1C138.1,122.5,137.8,122.5,137.4,122.6L137.4,122.6L137.4,122.6z" fill="#FFF5E4"/></g><g id="change1_13"><path d="M130.2,167.9c-2.1,0.1-3.9,1.3-5.1,3c-0.9,1.3-1.3,2.9-1.4,4.6c0,0.4-0.1,0.8,0,1.1 c0.1,0.5,0.1,0.9,0.2,1.4c0.1,0.4,0.3,0.8,0.5,1.2c0.3,0.5,0.6,0.9,1,1.3c0.6,0.9,1.4,1.6,2.4,2.1c0.7,0.3,1.4,0.5,2.1,0.6 c0.5,0.1,1,0.1,1.4,0.1c0.8,0,1.4-0.3,2.1-0.6c3.2-1.4,4.6-5.2,4.5-8.5c0-2-1.2-4-2.8-5.1c-1.3-0.9-2.9-1.2-4.4-1.2 C130.5,167.9,130.4,167.9,130.2,167.9L130.2,167.9L130.2,167.9z" fill="#FFF5E4"/></g></g></svg>