<?xml version="1.0" encoding="UTF-8"?><svg xmlns="http://www.w3.org/2000/svg" xmlns:xlink="http://www.w3.org/1999/xlink" height="434.9" preserveAspectRatio="xMidYMid meet" version="1.0" viewBox="1.2 6.5 1429.9 434.9" width="1429.9" zoomAndPan="magnify"><g fill="#F7E101" id="change1_1"><path d="M1431,92c-1.4,1.3-3.2,1.9-3.2,4.7c0,2.7-2.7,0.2-4.2,1.2c-4.7,3.3-8.9-0.1-11.5-2.8c-3.8-4-9.2-4.2-13-7.1 c-2.4-1.9-8.8-1.5-6.2-7.6c-4.6-3.1-0.8-6.1,0.9-8c2.4-2.9,6.6-4.7,10-4c5.1,1.1,10,3.8,14.9,5.8c7.4,3.1,10.2,9,12.4,15.9 C1431,90.7,1431,91.3,1431,92z" fill="inherit"/><path d="M965.6,213.6c9.2-0.2,17.7-0.1,26.2-0.7c10.9-0.8,21.4-3.1,31.3-7.2c9.4-3.8,18.9-7.3,28.1-11.9 c5.7-2.9,11.2-6.1,16.8-9c3.7-1.9,6.9-3.8,11.3-3.3c5,0.6,5,0.3,5.8,5.4c0.1,0.9,0.9,0.7,1.4,1.1c2.6,1.9,2,8-1,9.3 c-2.2,1-3.4,3.1-5.4,4.4c-7.2,5-15.4,8-23,12.2c-5.2,2.9-10.7,6.2-16.1,7.5c-7.3,1.7-13.3,6.1-20.5,7.7 c-10.2,2.2-20.5,3.6-30.9,4.7c-5.6,0.6-11.1-0.3-16.4,0.5c-9.4,1.4-17.7-1.7-26-5c-3.6-1.4-5.6-1-7.6,1.9 c-2.8,4.1-7.8,4.9-11.7,7.2c-4.2,2.5-8.4,5.4-13.6,6.1c-1.9,0.3-3.6,0.2-5.3-0.4c-1.1-0.4-2.8-0.7-0.5-2.4c1.2-0.9-0.1-2.3-1.3-2.1 c-3.6,0.7-3.2-1.7-3.2-3.8c0.1-3.1,0.4-5.9,2.9-8.3c2.6-2.6,5.1-4.6,8.7-5.5c2.8-0.7,4.5-3.6,7.4-4.6c3.3-1.1,5.3-2.4,1.2-6.2 c-4.4-4.1-7.5-10.1-8.6-15.8c-0.6-3.3,0-7.6-0.9-11.2c-1.5-6.2,1.1-11.9,2.6-17.3c1.7-6.5,3-13.9,9-18.6c3.3-2.7,4.6-6.8,8.1-9.7 c10-8.1,21.1-11.6,33.8-12.2c10.3-0.5,19.5,2.1,27.2,8.4c3.7,3,6.5,7.9,7,12.9c0.6,5.8,1.2,11.8-1,17.6 c-3.2,8.3-6.3,16.6-12.4,23.2c-6.8,7.4-13.6,14.8-21.2,21.4C967,210.5,966.6,211.9,965.6,213.6z M959.7,147.3 c-6,0-9.8,5.4-13.9,9.5c-7,6.9-9.2,16.3-10.5,25.7c-1.1,7.4,2.9,13.2,7.4,18.5c1.1,1.3,2,0.8,3.6-0.2c5.4-3.3,9.1-8.3,13.8-12.2 c3.3-2.7,6.6-5.6,9.3-8.9c6-7.2,11.9-14.6,13.1-24.5c0.6-4.7-1.6-6.9-5.6-7.9C971.5,146.2,966.1,147.6,959.7,147.3z" fill="inherit"/><path d="M688.8,260.6c-10.2,0.8-20-0.3-29.2-2.7c-10.9-2.8-22.2-4.9-32.5-10.5c-5-2.8-8.3-5.8-10.1-10.9 c-0.5-1.3,2.3-4.9,3.3-5.9c8.2-8.7,15.5-1.3,23,1.2c7.2,2.4,14.4,4.7,21.8,6.2c7.6,1.5,15.1,2.8,23,2.3c4-0.3,10.1,5.2,10,8.5 c-0.1,2.7,0.5,5.9-1.6,8.2C694.4,259.2,692.2,262,688.8,260.6z" fill="inherit"/><path d="M1321.6,69.7c-9.7-0.3-18.4-1.8-26.7,0.5c-7.5,2.1-14.5,5.7-22,7.9c-4.8,1.4-9.5,3.6-14.4,4.3 c-2.1,0.3-5.1-1.7-6.9-3.4c-2.2-2-3.4-5.4-1.9-8.1c2.3-4.2,4.9-7.6,10.4-9.6c7.8-2.8,15.7-5.7,23.6-8.4c7.1-2.5,14.1-5.1,21.8-3.8 c2.8,0.5,5.7-0.2,8.4-0.3c4.7-0.3,12.6,4.9,13.1,8.4c0.4,2.9,4,8.2-2.9,9.6c-0.6,0.1-0.8,1.7-1.3,2.5 C1322.1,70.6,1321.3,69.6,1321.6,69.7z" fill="inherit"/><path d="M772,244.4c8.5,0.1,16.1-1,23.8-2.7c5.3-1.2,11-1.5,16-3.7c4-1.8,8-2.1,12.1-2.2c1.6,0,2.3,2.9,4.5,2.5 c-2.2,2.4,5.5,3.6,0.8,6.3c2.3,4.5,0.5,7.5-3.4,9.9c-3.2,1.9-6.6,2.9-10.3,3.8c-6.7,1.6-13.5,3.1-20.1,5.2 c-6.8,2.1-14.5,2-21.8,1.3c-2-0.2-3.9,1.1-6-0.4c-3.1-2.2-6-3.3-6.1-8.4c-0.1-3.1-2.1-6.3,1.3-8.2 C765.8,246.1,768.3,242.1,772,244.4z" fill="inherit"/><path d="M1183,129c-2.5,2.7-2.1,6.4-4.9,8.9c-7.1,6.5-13.3,14-20.1,20.8c-1.8,1.8-4.2,3.1-6.8,4.1 c-5.8,2.2-11.3,0-12.7-6c-0.4-1.9-0.5-4-0.4-6c0.3-3.4,3.7-4.6,5.6-6.9c3.9-4.8,8.5-9.1,12.9-13.4c3.7-3.6,6.5-8.9,12.4-10.2 c6.8-1.5,9.4,3.7,13.1,7.3C1182.6,128.1,1182.8,128.7,1183,129z" fill="inherit"/></g><g><g id="change2_1"><path d="M399,238.5c-5.1,0.1-8.2-1.1-11.2-2.9C391.1,236.1,394.9,235,399,238.5z" fill="#D3DEF5"/></g><g><g id="change3_1"><path d="M484,251.9c0,29.3,0,58.5,0,87.8c0,10.8,0.1,21.7,0.1,32.5c0,21.2,0,42.4-0.2,63.6c0,5-1.3,5.6-5.7,3.2 c-9.3-5.1-19.3-9-27.8-15.4c-7.9-6-16.6-10.9-25-15.7c-13.3-7.7-26.7-15.5-39.9-23.3c-9.9-5.9-20.1-11.5-29.6-18 c-10-6.9-20-14-30.6-19.8c-12.8-7-25.4-14.4-38-21.6c-2.6-1.5-4.7-3.7-6.9-5.5c-4.2-3.4-9.3-5.8-13.8-8 c-9.2-4.6-16.2-12.4-26.2-15.7c-4.5-1.5-8.1-5.5-12.4-8c-8.8-5.1-17.9-9.5-26.5-14.8c-12.3-7.5-24.4-15.3-36.6-23.1 c-8.5-5.4-16.8-11.4-26.1-15.8c-4.6-2.2-10.4-4.3-14.1-9c-2.4-3.1-6.9-3.5-10.2-5.6c-3.7-2.4-7.2-5.3-11.4-7.3 c-6.7-3.2-12.7-7.8-19.4-11.2c-12.8-6.5-24.4-15.2-36.9-22.2c-12.9-7.2-24.1-17-37.5-23.4c-7.1-3.4-8.1-8.7-3.8-18.1 c3.9-8.5,1.4-8.6,13.6-6.6c14.6,3.7,29.7,4.5,44.6,5.9c12.4,1.2,24.7,2,37.1,3.2c13.8,1.4,27.6,3.2,41.4,4.8 c13.5,1.5,27,2.6,40.5,4.2c21.2,2.5,42.3,5.2,63.5,7.8c16.2,2,32.5,4,48.7,6.2c20.8,2.8,41.5,6.4,62.3,8.6 c18.9,2,37.6,5.5,56.5,7.5c19.2,2,38.2,6,57.6,6.8c6.6,0.3,11.3,3.5,11.5,8.5c0.7,13.9,2.1,27.9,1,41.8 C483.4,241.6,484.3,246.7,484,251.9z M399,238.5c-4.1-3.5-7.9-2.4-11.2-2.9C390.8,237.4,393.9,238.6,399,238.5z" fill="#96B1E7"/></g><g id="change3_2"><path d="M20.9,121.1c-0.9-0.3-1.9-0.6-2.8-1c-2.1-0.7-5.8,1.7-6.1-2.9c-0.4-5.3,2-9.7,6.1-10.5 c13.8-2.7,27.6-5.1,41.4-7.9c17.1-3.4,34.1-7.5,51.3-10.5c17.4-3,34.6-7.1,52.1-9.7c9.6-1.4,19-4.3,28.6-6.3 c10.1-2.1,20.3-3.7,30.4-5.6c12.3-2.3,24.7-4.8,37-7.2c13.9-2.8,27.8-5.7,41.8-8.4c30.4-5.9,60.9-11.2,91.1-17.6 c19.9-4.2,40-7.6,59.8-12.2c13.9-3.2,28.2-4.9,42.3-7.5c8.1-1.5,16.1-3.6,24.2-5.4c2.7-0.6,5.4-1.9,8.1,0c-1.4,7.8-4.4,15.2-6,23 c-3,14-6.4,28-9.7,42c-2.5,10.7-5,21.5-7.5,32.3c-1.8,7.7-4.5,15.1-5.2,23.1c-0.2,2.2-0.7,5.2-4.3,5.1c-6.2-0.1-12.5,0.3-18.6-0.3 c-10.5-1.1-21.1-1-31.6-1.6c-10.7-0.6-21.5,0.7-32.1-0.5c-11.6-1.3-23.2-0.5-34.8-1.4c-15.4-1.2-30.9-0.7-46.4-1.2 c-17.7-0.6-35.4-1.1-53.1-1.9c-13.5-0.6-27-0.3-40.5-1.1c-11.5-0.7-23.1-0.1-34.7-0.9c-13-0.9-26-0.3-39-1.1 c-12.2-0.7-24.5-0.3-36.7-0.9c-14.6-0.7-29.2-0.8-43.8-1.2c-17.9-0.5-35.8-0.8-53.7-1C25.9,121,23.3,118.5,20.9,121.1z" fill="#96B1E7"/></g><g id="change4_1"><path d="M20.9,121.1c2.5-2.6,5-0.1,7.5,0c17.9,0.2,35.8,0.5,53.7,1c14.6,0.4,29.2,0.5,43.8,1.2 c12.3,0.6,24.5,0.2,36.7,0.9c13,0.8,26.1,0.2,39,1.1c11.6,0.8,23.2,0.2,34.7,0.9c13.5,0.8,27,0.5,40.5,1.1 c17.7,0.8,35.4,1.3,53.1,1.9c15.5,0.6,31,0,46.4,1.2c11.6,0.9,23.2,0.1,34.8,1.4c10.6,1.2,21.4-0.1,32.1,0.5 c10.5,0.6,21.1,0.4,31.6,1.6c6.2,0.7,12.4,0.2,18.6,0.3c3.6,0.1,4.1-2.9,4.3-5.1c0.6-8,3.4-15.4,5.2-23.1 c2.5-10.8,4.9-21.6,7.5-32.3c3.3-14,6.7-27.9,9.7-42c1.6-7.8,4.6-15.1,6-23c2,0.3,2,1.8,2.2,3.3c1.3,8.8,0.3,17.5-1.4,26.1 c-0.8,4-1.2,8.2-1.6,12.2c-1.2,10.2-3.1,20.3-4.6,30.5c-1.9,13.3-4.1,26.5-5.9,39.8c-2,14.1-3.4,28.3-5.3,42.5 c-2.2,16.6-4.7,33.2-5.8,49.9c-0.5,8-2.2,15.8-2.2,23.9c0,4.9-2.3,10.1-3.6,15.2c-0.2,0.9-0.8,1.9-2.1,1.5 c-3.8-1.2-8,0.3-11.8-1.5c0.4-5.2-0.6-10.3-0.2-15.5c1.1-13.9-0.3-27.9-1-41.8c-0.3-5-5-8.2-11.5-8.5c-19.4-0.8-38.4-4.8-57.6-6.8 c-18.9-1.9-37.6-5.5-56.5-7.5c-20.9-2.2-41.6-5.8-62.3-8.6c-16.2-2.2-32.5-4.2-48.7-6.2c-21.2-2.6-42.3-5.4-63.5-7.8 c-13.5-1.6-27-2.7-40.5-4.2c-13.8-1.5-27.6-3.3-41.4-4.8c-12.3-1.3-24.7-2-37.1-3.2c-14.9-1.5-30-2.2-44.6-5.9 C18.5,127.5,21,124.5,20.9,121.1z M482.5,138.7c-2.7-0.7-5.2-0.2-7.1,1.5c-0.6,0.6,0.3,1.4,1.1,1.9 C480.5,144.6,480,139.1,482.5,138.7z" fill="#7D96C9"/></g><g id="change3_3"><path d="M482.5,138.7c-2.5,0.4-2,6-6.1,3.4c-0.7-0.5-1.7-1.3-1.1-1.9C477.3,138.5,479.8,138,482.5,138.7z" fill="#96B1E7"/></g></g></g><g id="change5_1"><path d="M959.7,147.3c6.4,0.2,11.8-1.2,17.1,0.1c4,0.9,6.2,3.1,5.6,7.9c-1.2,10-7,17.3-13.1,24.5 c-2.7,3.3-6,6.1-9.3,8.9c-4.7,3.9-8.4,8.9-13.8,12.2c-1.6,1-2.5,1.5-3.6,0.2c-4.5-5.3-8.5-11.1-7.4-18.5c1.3-9.4,3.6-18.8,10.5-25.7 C949.9,152.8,953.7,147.3,959.7,147.3z" fill="#FEFEFE"/></g></svg>